<svg width="776" height="266" viewBox="0 0 776 266" fill="none" xmlns="http://www.w3.org/2000/svg">
<rect width="180" height="116" rx="16" fill="#FFD966"/>
<path d="M65.483 52.5455C65.3466 51.3939 64.7936 50.5 63.8239 49.8636C62.8542 49.2273 61.6648 48.9091 60.2557 48.9091C59.2254 48.9091 58.3239 49.0758 57.5511 49.4091C56.786 49.7424 56.1875 50.2008 55.7557 50.7841C55.3314 51.3674 55.1193 52.0303 55.1193 52.7727C55.1193 53.3939 55.267 53.928 55.5625 54.375C55.8655 54.8144 56.2519 55.1818 56.7216 55.4773C57.1913 55.7652 57.6837 56.0038 58.1989 56.1932C58.714 56.375 59.1875 56.5227 59.6193 56.6364L61.983 57.2727C62.589 57.4318 63.2633 57.6515 64.0057 57.9318C64.7557 58.2121 65.4716 58.5947 66.1534 59.0795C66.8428 59.5568 67.411 60.1705 67.858 60.9205C68.3049 61.6705 68.5284 62.5909 68.5284 63.6818C68.5284 64.9394 68.1989 66.0758 67.5398 67.0909C66.8883 68.1061 65.9337 68.9129 64.6761 69.5114C63.4261 70.1098 61.9072 70.4091 60.1193 70.4091C58.4527 70.4091 57.0095 70.1402 55.7898 69.6023C54.5777 69.0644 53.6231 68.3144 52.9261 67.3523C52.2367 66.3902 51.8466 65.2727 51.7557 64H54.6648C54.7405 64.8788 55.036 65.6061 55.5511 66.1818C56.0739 66.75 56.733 67.1742 57.5284 67.4545C58.3314 67.7273 59.1951 67.8636 60.1193 67.8636C61.1951 67.8636 62.161 67.6894 63.017 67.3409C63.8731 66.9848 64.5511 66.4924 65.0511 65.8636C65.5511 65.2273 65.8011 64.4848 65.8011 63.6364C65.8011 62.8636 65.5852 62.2348 65.1534 61.75C64.7216 61.2652 64.1534 60.8712 63.4489 60.5682C62.7443 60.2652 61.983 60 61.1648 59.7727L58.3011 58.9545C56.483 58.4318 55.0436 57.6856 53.983 56.7159C52.9223 55.7462 52.392 54.4773 52.392 52.9091C52.392 51.6061 52.7443 50.4697 53.4489 49.5C54.161 48.5227 55.1155 47.7652 56.3125 47.2273C57.517 46.6818 58.8617 46.4091 60.3466 46.4091C61.8466 46.4091 63.1799 46.678 64.3466 47.2159C65.5133 47.7462 66.4375 48.4735 67.1193 49.3977C67.8087 50.322 68.1723 51.3712 68.2102 52.5455H65.483ZM80.3892 52.5455V54.8182H71.3438V52.5455H80.3892ZM73.9801 48.3636H76.6619V65C76.6619 65.7576 76.7718 66.3258 76.9915 66.7045C77.2188 67.0758 77.5066 67.3258 77.8551 67.4545C78.2112 67.5758 78.5862 67.6364 78.9801 67.6364C79.2756 67.6364 79.518 67.6212 79.7074 67.5909C79.8968 67.553 80.0483 67.5227 80.1619 67.5L80.7074 69.9091C80.5256 69.9773 80.2718 70.0455 79.946 70.1136C79.6203 70.1894 79.2074 70.2273 78.7074 70.2273C77.9498 70.2273 77.2074 70.0644 76.4801 69.7386C75.7604 69.4129 75.1619 68.9167 74.6847 68.25C74.215 67.5833 73.9801 66.7424 73.9801 65.7273V48.3636ZM89.5597 70.4091C88.4536 70.4091 87.4498 70.2008 86.5483 69.7841C85.6468 69.3598 84.9309 68.75 84.4006 67.9545C83.8703 67.1515 83.6051 66.1818 83.6051 65.0455C83.6051 64.0455 83.8021 63.2348 84.196 62.6136C84.59 61.9848 85.1165 61.4924 85.7756 61.1364C86.4347 60.7803 87.1619 60.5152 87.9574 60.3409C88.7604 60.1591 89.5672 60.0152 90.3778 59.9091C91.4384 59.7727 92.2983 59.6705 92.9574 59.6023C93.6241 59.5265 94.1089 59.4015 94.4119 59.2273C94.7225 59.053 94.8778 58.75 94.8778 58.3182V58.2273C94.8778 57.1061 94.571 56.2348 93.9574 55.6136C93.3513 54.9924 92.4309 54.6818 91.196 54.6818C89.9157 54.6818 88.9119 54.9621 88.1847 55.5227C87.4574 56.0833 86.946 56.6818 86.6506 57.3182L84.1051 56.4091C84.5597 55.3485 85.1657 54.5227 85.9233 53.9318C86.6884 53.3333 87.5218 52.9167 88.4233 52.6818C89.3324 52.4394 90.2263 52.3182 91.1051 52.3182C91.6657 52.3182 92.3097 52.3864 93.0369 52.5227C93.7718 52.6515 94.4801 52.9205 95.1619 53.3295C95.8513 53.7386 96.4233 54.3561 96.8778 55.1818C97.3324 56.0076 97.5597 57.1136 97.5597 58.5V70H94.8778V67.6364H94.7415C94.5597 68.0152 94.2566 68.4205 93.8324 68.8523C93.4081 69.2841 92.8438 69.6515 92.1392 69.9545C91.4347 70.2576 90.5748 70.4091 89.5597 70.4091ZM89.9688 68C91.0294 68 91.9233 67.7917 92.6506 67.375C93.3854 66.9583 93.9384 66.4205 94.3097 65.7614C94.6884 65.1023 94.8778 64.4091 94.8778 63.6818V61.2273C94.7642 61.3636 94.5142 61.4886 94.1278 61.6023C93.7491 61.7083 93.3097 61.803 92.8097 61.8864C92.3172 61.9621 91.8362 62.0303 91.3665 62.0909C90.9044 62.1439 90.5294 62.1894 90.2415 62.2273C89.5445 62.3182 88.893 62.4659 88.2869 62.6705C87.6884 62.8674 87.2036 63.1667 86.8324 63.5682C86.4688 63.9621 86.2869 64.5 86.2869 65.1818C86.2869 66.1136 86.6316 66.8182 87.321 67.2955C88.018 67.7652 88.9006 68 89.9688 68ZM110.045 52.5455V54.8182H101V52.5455H110.045ZM103.636 48.3636H106.318V65C106.318 65.7576 106.428 66.3258 106.648 66.7045C106.875 67.0758 107.163 67.3258 107.511 67.4545C107.867 67.5758 108.242 67.6364 108.636 67.6364C108.932 67.6364 109.174 67.6212 109.364 67.5909C109.553 67.553 109.705 67.5227 109.818 67.5L110.364 69.9091C110.182 69.9773 109.928 70.0455 109.602 70.1136C109.277 70.1894 108.864 70.2273 108.364 70.2273C107.606 70.2273 106.864 70.0644 106.136 69.7386C105.417 69.4129 104.818 68.9167 104.341 68.25C103.871 67.5833 103.636 66.7424 103.636 65.7273V48.3636ZM121.21 70.3636C119.528 70.3636 118.078 69.9924 116.858 69.25C115.646 68.5 114.71 67.4545 114.051 66.1136C113.4 64.7652 113.074 63.197 113.074 61.4091C113.074 59.6212 113.4 58.0455 114.051 56.6818C114.71 55.3106 115.627 54.2424 116.801 53.4773C117.983 52.7045 119.362 52.3182 120.938 52.3182C121.847 52.3182 122.744 52.4697 123.631 52.7727C124.517 53.0758 125.324 53.5682 126.051 54.25C126.778 54.9242 127.358 55.8182 127.79 56.9318C128.222 58.0455 128.438 59.4167 128.438 61.0455V62.1818H114.983V59.8636H125.71C125.71 58.8788 125.513 58 125.119 57.2273C124.733 56.4545 124.18 55.8447 123.46 55.3977C122.748 54.9508 121.907 54.7273 120.938 54.7273C119.869 54.7273 118.945 54.9924 118.165 55.5227C117.392 56.0455 116.797 56.7273 116.381 57.5682C115.964 58.4091 115.756 59.3106 115.756 60.2727V61.8182C115.756 63.1364 115.983 64.2538 116.438 65.1705C116.9 66.0795 117.54 66.7727 118.358 67.25C119.176 67.7197 120.127 67.9545 121.21 67.9545C121.915 67.9545 122.551 67.8561 123.119 67.6591C123.695 67.4545 124.191 67.1515 124.608 66.75C125.025 66.3409 125.347 65.8333 125.574 65.2273L128.165 65.9545C127.892 66.8333 127.434 67.6061 126.79 68.2727C126.146 68.9318 125.35 69.447 124.403 69.8182C123.456 70.1818 122.392 70.3636 121.21 70.3636Z" fill="black"/>
<rect x="477" width="180" height="116" rx="16" fill="#00B0F0"/>
<path d="M568.574 46.7273H571.392V62.1364C571.392 63.7273 571.017 65.1477 570.267 66.3977C569.525 67.6402 568.476 68.6212 567.12 69.3409C565.763 70.053 564.173 70.4091 562.347 70.4091C560.521 70.4091 558.93 70.053 557.574 69.3409C556.218 68.6212 555.165 67.6402 554.415 66.3977C553.673 65.1477 553.301 63.7273 553.301 62.1364V46.7273H556.12V61.9091C556.12 63.0455 556.37 64.0568 556.87 64.9432C557.37 65.822 558.082 66.5152 559.006 67.0227C559.938 67.5227 561.051 67.7727 562.347 67.7727C563.642 67.7727 564.756 67.5227 565.688 67.0227C566.62 66.5152 567.332 65.822 567.824 64.9432C568.324 64.0568 568.574 63.0455 568.574 61.9091V46.7273ZM579.838 46.7273V70H577.02V46.7273H579.838Z" fill="#FFFAFA"/>
<path d="M477 58L456.961 46.5209L457.039 69.6147L477 58ZM182.007 61L459.007 60.061L458.993 56.061L181.993 57L182.007 61Z" fill="#DDDDDD"/>
<path d="M288.102 44V26.5455H294C295.363 26.5455 296.483 26.7784 297.358 27.2443C298.233 27.7045 298.88 28.3381 299.301 29.1449C299.721 29.9517 299.931 30.8693 299.931 31.8977C299.931 32.9261 299.721 33.8381 299.301 34.6335C298.88 35.429 298.235 36.054 297.366 36.5085C296.497 36.9574 295.386 37.1818 294.034 37.1818H289.261V35.2727H293.966C294.897 35.2727 295.647 35.1364 296.216 34.8636C296.789 34.5909 297.204 34.2045 297.46 33.7045C297.721 33.1989 297.852 32.5966 297.852 31.8977C297.852 31.1989 297.721 30.5881 297.46 30.0653C297.199 29.5426 296.781 29.1392 296.207 28.8551C295.633 28.5653 294.875 28.4205 293.931 28.4205H290.216V44H288.102ZM296.318 36.1591L300.613 44H298.159L293.931 36.1591H296.318ZM308.529 44.2727C307.267 44.2727 306.179 43.9943 305.265 43.4375C304.355 42.875 303.654 42.0909 303.159 41.0852C302.671 40.0739 302.426 38.8977 302.426 37.5568C302.426 36.2159 302.671 35.0341 303.159 34.0114C303.654 32.983 304.341 32.1818 305.222 31.608C306.108 31.0284 307.142 30.7386 308.324 30.7386C309.006 30.7386 309.679 30.8523 310.344 31.0795C311.009 31.3068 311.614 31.6761 312.159 32.1875C312.705 32.6932 313.14 33.3636 313.463 34.1989C313.787 35.0341 313.949 36.0625 313.949 37.2841V38.1364H303.858V36.3977H311.904C311.904 35.6591 311.756 35 311.461 34.4205C311.171 33.8409 310.756 33.3835 310.216 33.0483C309.682 32.7131 309.051 32.5455 308.324 32.5455C307.523 32.5455 306.83 32.7443 306.245 33.142C305.665 33.5341 305.219 34.0455 304.907 34.6761C304.594 35.3068 304.438 35.983 304.438 36.7045V37.8636C304.438 38.8523 304.608 39.6903 304.949 40.3778C305.296 41.0597 305.776 41.5795 306.39 41.9375C307.003 42.2898 307.716 42.4659 308.529 42.4659C309.057 42.4659 309.534 42.392 309.961 42.2443C310.392 42.0909 310.765 41.8636 311.077 41.5625C311.39 41.2557 311.631 40.875 311.801 40.4205L313.745 40.9659C313.54 41.625 313.196 42.2045 312.713 42.7045C312.23 43.1989 311.634 43.5852 310.924 43.8636C310.213 44.1364 309.415 44.2727 308.529 44.2727ZM319.02 36.125V44H317.009V30.9091H318.952V32.9545H319.123C319.429 32.2898 319.895 31.7557 320.52 31.3523C321.145 30.9432 321.952 30.7386 322.941 30.7386C323.827 30.7386 324.603 30.9205 325.267 31.2841C325.932 31.642 326.449 32.1875 326.819 32.9205C327.188 33.6477 327.373 34.5682 327.373 35.6818V44H325.361V35.8182C325.361 34.7898 325.094 33.9886 324.56 33.4148C324.026 32.8352 323.293 32.5455 322.361 32.5455C321.719 32.5455 321.145 32.6847 320.64 32.9631C320.14 33.2415 319.745 33.6477 319.455 34.1818C319.165 34.7159 319.02 35.3636 319.02 36.125ZM335.991 44.2727C334.9 44.2727 333.937 43.9972 333.102 43.446C332.267 42.8892 331.613 42.1051 331.142 41.0938C330.67 40.0767 330.434 38.875 330.434 37.4886C330.434 36.1136 330.67 34.9205 331.142 33.9091C331.613 32.8977 332.27 32.1165 333.11 31.5653C333.951 31.0142 334.923 30.7386 336.025 30.7386C336.877 30.7386 337.551 30.8807 338.045 31.1648C338.545 31.4432 338.926 31.7614 339.187 32.1193C339.454 32.4716 339.662 32.7614 339.809 32.9886H339.98V26.5455H341.991V44H340.048V41.9886H339.809C339.662 42.2273 339.451 42.5284 339.179 42.892C338.906 43.25 338.517 43.571 338.011 43.8551C337.505 44.1335 336.832 44.2727 335.991 44.2727ZM336.264 42.4659C337.071 42.4659 337.752 42.2557 338.309 41.8352C338.866 41.4091 339.289 40.821 339.579 40.071C339.869 39.3153 340.014 38.4432 340.014 37.4545C340.014 36.4773 339.872 35.6222 339.588 34.8892C339.304 34.1506 338.883 33.5767 338.326 33.1676C337.77 32.7528 337.082 32.5455 336.264 32.5455C335.412 32.5455 334.701 32.7642 334.133 33.2017C333.571 33.6335 333.147 34.2216 332.863 34.9659C332.585 35.7045 332.446 36.5341 332.446 37.4545C332.446 38.3864 332.588 39.233 332.872 39.9943C333.162 40.75 333.588 41.3523 334.15 41.8011C334.718 42.2443 335.423 42.4659 336.264 42.4659ZM351.443 44.2727C350.181 44.2727 349.093 43.9943 348.179 43.4375C347.27 42.875 346.568 42.0909 346.074 41.0852C345.585 40.0739 345.341 38.8977 345.341 37.5568C345.341 36.2159 345.585 35.0341 346.074 34.0114C346.568 32.983 347.255 32.1818 348.136 31.608C349.022 31.0284 350.056 30.7386 351.238 30.7386C351.92 30.7386 352.593 30.8523 353.258 31.0795C353.923 31.3068 354.528 31.6761 355.074 32.1875C355.619 32.6932 356.054 33.3636 356.377 34.1989C356.701 35.0341 356.863 36.0625 356.863 37.2841V38.1364H346.772V36.3977H354.818C354.818 35.6591 354.67 35 354.375 34.4205C354.085 33.8409 353.67 33.3835 353.13 33.0483C352.596 32.7131 351.966 32.5455 351.238 32.5455C350.437 32.5455 349.744 32.7443 349.159 33.142C348.579 33.5341 348.133 34.0455 347.821 34.6761C347.508 35.3068 347.352 35.983 347.352 36.7045V37.8636C347.352 38.8523 347.522 39.6903 347.863 40.3778C348.21 41.0597 348.69 41.5795 349.304 41.9375C349.917 42.2898 350.63 42.4659 351.443 42.4659C351.971 42.4659 352.449 42.392 352.875 42.2443C353.306 42.0909 353.679 41.8636 353.991 41.5625C354.304 41.2557 354.545 40.875 354.716 40.4205L356.659 40.9659C356.454 41.625 356.11 42.2045 355.627 42.7045C355.145 43.1989 354.548 43.5852 353.838 43.8636C353.127 44.1364 352.329 44.2727 351.443 44.2727ZM359.923 44V30.9091H361.866V32.8864H362.002C362.241 32.2386 362.673 31.7131 363.298 31.3097C363.923 30.9062 364.627 30.7045 365.412 30.7045C365.559 30.7045 365.744 30.7074 365.966 30.7131C366.187 30.7187 366.355 30.7273 366.468 30.7386V32.7841C366.4 32.767 366.244 32.7415 366 32.7074C365.761 32.6676 365.508 32.6477 365.241 32.6477C364.605 32.6477 364.037 32.7812 363.537 33.0483C363.042 33.3097 362.65 33.6733 362.36 34.1392C362.076 34.5994 361.934 35.125 361.934 35.7159V44H359.923Z" fill="black"/>
<circle cx="253" cy="31" r="22" fill="#78B500"/>
<path d="M254.577 24.3636V36H253.168V25.8409H253.099L250.259 27.7273V26.2955L253.168 24.3636H254.577Z" fill="white"/>
<path d="M285.332 106V88.5455H291.23C292.594 88.5455 293.713 88.7784 294.588 89.2443C295.463 89.7045 296.111 90.3381 296.531 91.1449C296.952 91.9517 297.162 92.8693 297.162 93.8977C297.162 94.9261 296.952 95.8381 296.531 96.6335C296.111 97.429 295.466 98.054 294.597 98.5085C293.727 98.9574 292.616 99.1818 291.264 99.1818H286.491V97.2727H291.196C292.128 97.2727 292.878 97.1364 293.446 96.8636C294.02 96.5909 294.435 96.2045 294.69 95.7045C294.952 95.1989 295.082 94.5966 295.082 93.8977C295.082 93.1989 294.952 92.5881 294.69 92.0653C294.429 91.5426 294.011 91.1392 293.438 90.8551C292.864 90.5653 292.105 90.4205 291.162 90.4205H287.446V106H285.332ZM293.548 98.1591L297.844 106H295.389L291.162 98.1591H293.548ZM305.759 106.273C304.498 106.273 303.41 105.994 302.495 105.438C301.586 104.875 300.884 104.091 300.39 103.085C299.901 102.074 299.657 100.898 299.657 99.5568C299.657 98.2159 299.901 97.0341 300.39 96.0114C300.884 94.983 301.572 94.1818 302.452 93.608C303.339 93.0284 304.373 92.7386 305.555 92.7386C306.237 92.7386 306.91 92.8523 307.575 93.0795C308.239 93.3068 308.844 93.6761 309.39 94.1875C309.935 94.6932 310.37 95.3636 310.694 96.1989C311.018 97.0341 311.18 98.0625 311.18 99.2841V100.136H301.089V98.3977H309.134C309.134 97.6591 308.987 97 308.691 96.4205C308.401 95.8409 307.987 95.3835 307.447 95.0483C306.913 94.7131 306.282 94.5455 305.555 94.5455C304.754 94.5455 304.06 94.7443 303.475 95.142C302.896 95.5341 302.45 96.0455 302.137 96.6761C301.825 97.3068 301.668 97.983 301.668 98.7045V99.8636C301.668 100.852 301.839 101.69 302.18 102.378C302.526 103.06 303.006 103.58 303.62 103.938C304.234 104.29 304.947 104.466 305.759 104.466C306.288 104.466 306.765 104.392 307.191 104.244C307.623 104.091 307.995 103.864 308.308 103.562C308.62 103.256 308.862 102.875 309.032 102.42L310.975 102.966C310.771 103.625 310.427 104.205 309.944 104.705C309.461 105.199 308.864 105.585 308.154 105.864C307.444 106.136 306.646 106.273 305.759 106.273ZM321.739 97.5795V99.4545H314.103V97.5795H321.739ZM325.278 106V92.9091H327.222V94.8864H327.358C327.597 94.2386 328.028 93.7131 328.653 93.3097C329.278 92.9062 329.983 92.7045 330.767 92.7045C330.915 92.7045 331.099 92.7074 331.321 92.7131C331.543 92.7187 331.71 92.7273 331.824 92.7386V94.7841C331.756 94.767 331.599 94.7415 331.355 94.7074C331.116 94.6676 330.864 94.6477 330.597 94.6477C329.96 94.6477 329.392 94.7812 328.892 95.0483C328.398 95.3097 328.006 95.6733 327.716 96.1392C327.432 96.5994 327.29 97.125 327.29 97.7159V106H325.278ZM339.298 106.273C338.037 106.273 336.949 105.994 336.034 105.438C335.125 104.875 334.423 104.091 333.929 103.085C333.44 102.074 333.196 100.898 333.196 99.5568C333.196 98.2159 333.44 97.0341 333.929 96.0114C334.423 94.983 335.111 94.1818 335.991 93.608C336.878 93.0284 337.912 92.7386 339.094 92.7386C339.776 92.7386 340.449 92.8523 341.114 93.0795C341.778 93.3068 342.384 93.6761 342.929 94.1875C343.474 94.6932 343.909 95.3636 344.233 96.1989C344.557 97.0341 344.719 98.0625 344.719 99.2841V100.136H334.628V98.3977H342.673C342.673 97.6591 342.526 97 342.23 96.4205C341.94 95.8409 341.526 95.3835 340.986 95.0483C340.452 94.7131 339.821 94.5455 339.094 94.5455C338.293 94.5455 337.599 94.7443 337.014 95.142C336.435 95.5341 335.989 96.0455 335.676 96.6761C335.364 97.3068 335.207 97.983 335.207 98.7045V99.8636C335.207 100.852 335.378 101.69 335.719 102.378C336.065 103.06 336.545 103.58 337.159 103.938C337.773 104.29 338.486 104.466 339.298 104.466C339.827 104.466 340.304 104.392 340.73 104.244C341.162 104.091 341.534 103.864 341.847 103.562C342.159 103.256 342.401 102.875 342.571 102.42L344.514 102.966C344.31 103.625 343.966 104.205 343.483 104.705C343 105.199 342.403 105.585 341.693 105.864C340.983 106.136 340.185 106.273 339.298 106.273ZM349.79 98.125V106H347.778V92.9091H349.722V94.9545H349.892C350.199 94.2898 350.665 93.7557 351.29 93.3523C351.915 92.9432 352.722 92.7386 353.71 92.7386C354.597 92.7386 355.372 92.9205 356.037 93.2841C356.702 93.642 357.219 94.1875 357.588 94.9205C357.957 95.6477 358.142 96.5682 358.142 97.6818V106H356.131V97.8182C356.131 96.7898 355.864 95.9886 355.33 95.4148C354.795 94.8352 354.063 94.5455 353.131 94.5455C352.489 94.5455 351.915 94.6847 351.409 94.9631C350.909 95.2415 350.514 95.6477 350.224 96.1818C349.935 96.7159 349.79 97.3636 349.79 98.125ZM366.761 106.273C365.67 106.273 364.707 105.997 363.871 105.446C363.036 104.889 362.383 104.105 361.911 103.094C361.44 102.077 361.204 100.875 361.204 99.4886C361.204 98.1136 361.44 96.9205 361.911 95.9091C362.383 94.8977 363.039 94.1165 363.88 93.5653C364.721 93.0142 365.692 92.7386 366.795 92.7386C367.647 92.7386 368.32 92.8807 368.815 93.1648C369.315 93.4432 369.695 93.7614 369.957 94.1193C370.224 94.4716 370.431 94.7614 370.579 94.9886H370.749V88.5455H372.761V106H370.817V103.989H370.579C370.431 104.227 370.221 104.528 369.948 104.892C369.675 105.25 369.286 105.571 368.781 105.855C368.275 106.134 367.602 106.273 366.761 106.273ZM367.033 104.466C367.84 104.466 368.522 104.256 369.079 103.835C369.636 103.409 370.059 102.821 370.349 102.071C370.638 101.315 370.783 100.443 370.783 99.4545C370.783 98.4773 370.641 97.6222 370.357 96.8892C370.073 96.1506 369.653 95.5767 369.096 95.1676C368.539 94.7528 367.852 94.5455 367.033 94.5455C366.181 94.5455 365.471 94.7642 364.903 95.2017C364.34 95.6335 363.917 96.2216 363.633 96.9659C363.354 97.7045 363.215 98.5341 363.215 99.4545C363.215 100.386 363.357 101.233 363.641 101.994C363.931 102.75 364.357 103.352 364.92 103.801C365.488 104.244 366.192 104.466 367.033 104.466ZM382.212 106.273C380.951 106.273 379.863 105.994 378.948 105.438C378.039 104.875 377.337 104.091 376.843 103.085C376.354 102.074 376.11 100.898 376.11 99.5568C376.11 98.2159 376.354 97.0341 376.843 96.0114C377.337 94.983 378.025 94.1818 378.906 93.608C379.792 93.0284 380.826 92.7386 382.008 92.7386C382.69 92.7386 383.363 92.8523 384.028 93.0795C384.692 93.3068 385.298 93.6761 385.843 94.1875C386.388 94.6932 386.823 95.3636 387.147 96.1989C387.471 97.0341 387.633 98.0625 387.633 99.2841V100.136H377.542V98.3977H385.587C385.587 97.6591 385.44 97 385.144 96.4205C384.854 95.8409 384.44 95.3835 383.9 95.0483C383.366 94.7131 382.735 94.5455 382.008 94.5455C381.207 94.5455 380.513 94.7443 379.928 95.142C379.349 95.5341 378.903 96.0455 378.59 96.6761C378.278 97.3068 378.121 97.983 378.121 98.7045V99.8636C378.121 100.852 378.292 101.69 378.633 102.378C378.979 103.06 379.46 103.58 380.073 103.938C380.687 104.29 381.4 104.466 382.212 104.466C382.741 104.466 383.218 104.392 383.644 104.244C384.076 104.091 384.448 103.864 384.761 103.562C385.073 103.256 385.315 102.875 385.485 102.42L387.428 102.966C387.224 103.625 386.88 104.205 386.397 104.705C385.914 105.199 385.317 105.585 384.607 105.864C383.897 106.136 383.099 106.273 382.212 106.273ZM390.692 106V92.9091H392.636V94.8864H392.772C393.011 94.2386 393.442 93.7131 394.067 93.3097C394.692 92.9062 395.397 92.7045 396.181 92.7045C396.329 92.7045 396.513 92.7074 396.735 92.7131C396.957 92.7187 397.124 92.7273 397.238 92.7386V94.7841C397.17 94.767 397.013 94.7415 396.769 94.7074C396.531 94.6676 396.278 94.6477 396.011 94.6477C395.374 94.6477 394.806 94.7812 394.306 95.0483C393.812 95.3097 393.42 95.6733 393.13 96.1392C392.846 96.5994 392.704 97.125 392.704 97.7159V106H390.692Z" fill="black"/>
<circle cx="253" cy="95" r="22" fill="#78B500"/>
<path d="M249.299 97.6136V96.4545L254.413 88.3636H255.254V90.1591H254.685L250.822 96.2727V96.3636H257.708V97.6136H249.299ZM254.776 100V97.2614V96.7216V88.3636H256.117V100H254.776Z" fill="white"/>
<path d="M293.451 236.545H295.565V248.102C295.565 249.295 295.283 250.361 294.721 251.298C294.164 252.23 293.377 252.966 292.36 253.506C291.343 254.04 290.15 254.307 288.781 254.307C287.411 254.307 286.218 254.04 285.201 253.506C284.184 252.966 283.394 252.23 282.832 251.298C282.275 250.361 281.996 249.295 281.996 248.102V236.545H284.11V247.932C284.11 248.784 284.298 249.543 284.673 250.207C285.048 250.866 285.582 251.386 286.275 251.767C286.974 252.142 287.809 252.33 288.781 252.33C289.752 252.33 290.587 252.142 291.286 251.767C291.985 251.386 292.519 250.866 292.888 250.207C293.263 249.543 293.451 248.784 293.451 247.932V236.545ZM299.513 258.909V240.909H301.456V242.989H301.695C301.842 242.761 302.047 242.472 302.308 242.119C302.575 241.761 302.956 241.443 303.45 241.165C303.95 240.881 304.626 240.739 305.479 240.739C306.581 240.739 307.553 241.014 308.393 241.565C309.234 242.116 309.891 242.898 310.362 243.909C310.834 244.92 311.07 246.114 311.07 247.489C311.07 248.875 310.834 250.077 310.362 251.094C309.891 252.105 309.237 252.889 308.402 253.446C307.567 253.997 306.604 254.273 305.513 254.273C304.672 254.273 303.999 254.134 303.493 253.855C302.987 253.571 302.598 253.25 302.325 252.892C302.053 252.528 301.842 252.227 301.695 251.989H301.524V258.909H299.513ZM301.49 247.455C301.49 248.443 301.635 249.315 301.925 250.071C302.214 250.821 302.638 251.409 303.195 251.835C303.751 252.256 304.433 252.466 305.24 252.466C306.081 252.466 306.783 252.244 307.345 251.801C307.913 251.352 308.339 250.75 308.624 249.994C308.913 249.233 309.058 248.386 309.058 247.455C309.058 246.534 308.916 245.705 308.632 244.966C308.354 244.222 307.93 243.634 307.362 243.202C306.8 242.764 306.092 242.545 305.24 242.545C304.422 242.545 303.734 242.753 303.178 243.168C302.621 243.577 302.2 244.151 301.916 244.889C301.632 245.622 301.49 246.477 301.49 247.455ZM319.081 254.273C317.99 254.273 317.027 253.997 316.192 253.446C315.357 252.889 314.703 252.105 314.232 251.094C313.76 250.077 313.524 248.875 313.524 247.489C313.524 246.114 313.76 244.92 314.232 243.909C314.703 242.898 315.359 242.116 316.2 241.565C317.041 241.014 318.013 240.739 319.115 240.739C319.967 240.739 320.641 240.881 321.135 241.165C321.635 241.443 322.016 241.761 322.277 242.119C322.544 242.472 322.751 242.761 322.899 242.989H323.07V236.545H325.081V254H323.138V251.989H322.899C322.751 252.227 322.541 252.528 322.268 252.892C321.996 253.25 321.607 253.571 321.101 253.855C320.595 254.134 319.922 254.273 319.081 254.273ZM319.354 252.466C320.161 252.466 320.842 252.256 321.399 251.835C321.956 251.409 322.379 250.821 322.669 250.071C322.959 249.315 323.104 248.443 323.104 247.455C323.104 246.477 322.962 245.622 322.678 244.889C322.393 244.151 321.973 243.577 321.416 243.168C320.859 242.753 320.172 242.545 319.354 242.545C318.501 242.545 317.791 242.764 317.223 243.202C316.661 243.634 316.237 244.222 315.953 244.966C315.675 245.705 315.536 246.534 315.536 247.455C315.536 248.386 315.678 249.233 315.962 249.994C316.251 250.75 316.678 251.352 317.24 251.801C317.808 252.244 318.513 252.466 319.354 252.466ZM332.896 254.307C332.067 254.307 331.314 254.151 330.638 253.838C329.962 253.52 329.425 253.062 329.027 252.466C328.629 251.864 328.43 251.136 328.43 250.284C328.43 249.534 328.578 248.926 328.874 248.46C329.169 247.989 329.564 247.619 330.058 247.352C330.553 247.085 331.098 246.886 331.695 246.756C332.297 246.619 332.902 246.511 333.51 246.432C334.305 246.33 334.95 246.253 335.445 246.202C335.945 246.145 336.308 246.051 336.536 245.92C336.768 245.79 336.885 245.562 336.885 245.239V245.17C336.885 244.33 336.655 243.676 336.195 243.21C335.74 242.744 335.05 242.511 334.124 242.511C333.163 242.511 332.411 242.722 331.865 243.142C331.32 243.562 330.936 244.011 330.714 244.489L328.805 243.807C329.146 243.011 329.601 242.392 330.169 241.949C330.743 241.5 331.368 241.187 332.044 241.011C332.726 240.83 333.396 240.739 334.055 240.739C334.476 240.739 334.959 240.79 335.504 240.892C336.055 240.989 336.587 241.19 337.098 241.497C337.615 241.804 338.044 242.267 338.385 242.886C338.726 243.506 338.896 244.335 338.896 245.375V254H336.885V252.227H336.783C336.646 252.511 336.419 252.815 336.101 253.139C335.783 253.463 335.359 253.739 334.831 253.966C334.303 254.193 333.658 254.307 332.896 254.307ZM333.203 252.5C333.999 252.5 334.669 252.344 335.214 252.031C335.766 251.719 336.18 251.315 336.459 250.821C336.743 250.327 336.885 249.807 336.885 249.261V247.42C336.8 247.523 336.612 247.616 336.322 247.702C336.038 247.781 335.709 247.852 335.334 247.915C334.964 247.972 334.604 248.023 334.251 248.068C333.905 248.108 333.624 248.142 333.408 248.17C332.885 248.239 332.396 248.349 331.942 248.503C331.493 248.651 331.129 248.875 330.851 249.176C330.578 249.472 330.442 249.875 330.442 250.386C330.442 251.085 330.7 251.614 331.217 251.972C331.74 252.324 332.402 252.5 333.203 252.5ZM348.261 240.909V242.614H341.477V240.909H348.261ZM343.454 237.773H345.465V250.25C345.465 250.818 345.548 251.244 345.712 251.528C345.883 251.807 346.099 251.994 346.36 252.091C346.627 252.182 346.908 252.227 347.204 252.227C347.425 252.227 347.607 252.216 347.749 252.193C347.891 252.165 348.005 252.142 348.09 252.125L348.499 253.932C348.363 253.983 348.173 254.034 347.928 254.085C347.684 254.142 347.374 254.17 346.999 254.17C346.431 254.17 345.874 254.048 345.329 253.804C344.789 253.56 344.34 253.188 343.982 252.688C343.63 252.188 343.454 251.557 343.454 250.795V237.773ZM356.634 254.273C355.373 254.273 354.285 253.994 353.37 253.438C352.461 252.875 351.759 252.091 351.265 251.085C350.776 250.074 350.532 248.898 350.532 247.557C350.532 246.216 350.776 245.034 351.265 244.011C351.759 242.983 352.447 242.182 353.327 241.608C354.214 241.028 355.248 240.739 356.43 240.739C357.112 240.739 357.785 240.852 358.45 241.08C359.114 241.307 359.719 241.676 360.265 242.188C360.81 242.693 361.245 243.364 361.569 244.199C361.893 245.034 362.055 246.062 362.055 247.284V248.136H351.964V246.398H360.009C360.009 245.659 359.862 245 359.566 244.42C359.276 243.841 358.862 243.384 358.322 243.048C357.788 242.713 357.157 242.545 356.43 242.545C355.629 242.545 354.935 242.744 354.35 243.142C353.771 243.534 353.325 244.045 353.012 244.676C352.7 245.307 352.543 245.983 352.543 246.705V247.864C352.543 248.852 352.714 249.69 353.055 250.378C353.401 251.06 353.881 251.58 354.495 251.938C355.109 252.29 355.822 252.466 356.634 252.466C357.163 252.466 357.64 252.392 358.066 252.244C358.498 252.091 358.87 251.864 359.183 251.562C359.495 251.256 359.737 250.875 359.907 250.42L361.85 250.966C361.646 251.625 361.302 252.205 360.819 252.705C360.336 253.199 359.739 253.585 359.029 253.864C358.319 254.136 357.521 254.273 356.634 254.273ZM381.683 240.909C381.58 240.045 381.165 239.375 380.438 238.898C379.711 238.42 378.819 238.182 377.762 238.182C376.989 238.182 376.313 238.307 375.734 238.557C375.16 238.807 374.711 239.151 374.387 239.588C374.069 240.026 373.91 240.523 373.91 241.08C373.91 241.545 374.021 241.946 374.242 242.281C374.469 242.611 374.759 242.886 375.112 243.108C375.464 243.324 375.833 243.503 376.219 243.645C376.606 243.781 376.961 243.892 377.285 243.977L379.058 244.455C379.512 244.574 380.018 244.739 380.575 244.949C381.137 245.159 381.674 245.446 382.185 245.81C382.702 246.168 383.129 246.628 383.464 247.19C383.799 247.753 383.967 248.443 383.967 249.261C383.967 250.205 383.719 251.057 383.225 251.818C382.737 252.58 382.021 253.185 381.077 253.634C380.14 254.082 379.001 254.307 377.66 254.307C376.41 254.307 375.327 254.105 374.413 253.702C373.504 253.298 372.788 252.736 372.265 252.014C371.748 251.293 371.455 250.455 371.387 249.5H373.569C373.626 250.159 373.847 250.705 374.234 251.136C374.626 251.562 375.12 251.881 375.717 252.091C376.319 252.295 376.967 252.398 377.66 252.398C378.467 252.398 379.191 252.267 379.833 252.006C380.475 251.739 380.984 251.369 381.359 250.898C381.734 250.42 381.921 249.864 381.921 249.227C381.921 248.648 381.759 248.176 381.435 247.812C381.112 247.449 380.685 247.153 380.157 246.926C379.629 246.699 379.058 246.5 378.444 246.33L376.296 245.716C374.933 245.324 373.853 244.764 373.058 244.037C372.262 243.31 371.864 242.358 371.864 241.182C371.864 240.205 372.129 239.352 372.657 238.625C373.191 237.892 373.907 237.324 374.805 236.92C375.708 236.511 376.717 236.307 377.83 236.307C378.955 236.307 379.955 236.509 380.83 236.912C381.705 237.31 382.398 237.855 382.91 238.548C383.427 239.241 383.7 240.028 383.728 240.909H381.683ZM392.862 240.909V242.614H386.078V240.909H392.862ZM388.055 237.773H390.067V250.25C390.067 250.818 390.149 251.244 390.314 251.528C390.484 251.807 390.7 251.994 390.962 252.091C391.229 252.182 391.51 252.227 391.805 252.227C392.027 252.227 392.209 252.216 392.351 252.193C392.493 252.165 392.607 252.142 392.692 252.125L393.101 253.932C392.964 253.983 392.774 254.034 392.53 254.085C392.286 254.142 391.976 254.17 391.601 254.17C391.033 254.17 390.476 254.048 389.93 253.804C389.391 253.56 388.942 253.188 388.584 252.688C388.232 252.188 388.055 251.557 388.055 250.795V237.773ZM399.74 254.307C398.911 254.307 398.158 254.151 397.482 253.838C396.805 253.52 396.268 253.062 395.871 252.466C395.473 251.864 395.274 251.136 395.274 250.284C395.274 249.534 395.422 248.926 395.717 248.46C396.013 247.989 396.408 247.619 396.902 247.352C397.396 247.085 397.942 246.886 398.538 246.756C399.141 246.619 399.746 246.511 400.354 246.432C401.149 246.33 401.794 246.253 402.288 246.202C402.788 246.145 403.152 246.051 403.379 245.92C403.612 245.79 403.729 245.562 403.729 245.239V245.17C403.729 244.33 403.499 243.676 403.038 243.21C402.584 242.744 401.893 242.511 400.967 242.511C400.007 242.511 399.254 242.722 398.709 243.142C398.163 243.562 397.78 244.011 397.558 244.489L395.649 243.807C395.99 243.011 396.445 242.392 397.013 241.949C397.587 241.5 398.212 241.187 398.888 241.011C399.57 240.83 400.24 240.739 400.899 240.739C401.32 240.739 401.803 240.79 402.348 240.892C402.899 240.989 403.43 241.19 403.942 241.497C404.459 241.804 404.888 242.267 405.229 242.886C405.57 243.506 405.74 244.335 405.74 245.375V254H403.729V252.227H403.626C403.49 252.511 403.263 252.815 402.945 253.139C402.626 253.463 402.203 253.739 401.675 253.966C401.146 254.193 400.501 254.307 399.74 254.307ZM400.047 252.5C400.842 252.5 401.513 252.344 402.058 252.031C402.609 251.719 403.024 251.315 403.303 250.821C403.587 250.327 403.729 249.807 403.729 249.261V247.42C403.643 247.523 403.456 247.616 403.166 247.702C402.882 247.781 402.553 247.852 402.178 247.915C401.808 247.972 401.447 248.023 401.095 248.068C400.749 248.108 400.467 248.142 400.251 248.17C399.729 248.239 399.24 248.349 398.786 248.503C398.337 248.651 397.973 248.875 397.695 249.176C397.422 249.472 397.286 249.875 397.286 250.386C397.286 251.085 397.544 251.614 398.061 251.972C398.584 252.324 399.246 252.5 400.047 252.5ZM415.104 240.909V242.614H408.32V240.909H415.104ZM410.298 237.773H412.309V250.25C412.309 250.818 412.391 251.244 412.556 251.528C412.727 251.807 412.942 251.994 413.204 252.091C413.471 252.182 413.752 252.227 414.048 252.227C414.269 252.227 414.451 252.216 414.593 252.193C414.735 252.165 414.849 252.142 414.934 252.125L415.343 253.932C415.207 253.983 415.016 254.034 414.772 254.085C414.528 254.142 414.218 254.17 413.843 254.17C413.275 254.17 412.718 254.048 412.173 253.804C411.633 253.56 411.184 253.188 410.826 252.688C410.474 252.188 410.298 251.557 410.298 250.795V237.773ZM423.478 254.273C422.217 254.273 421.129 253.994 420.214 253.438C419.305 252.875 418.603 252.091 418.109 251.085C417.62 250.074 417.376 248.898 417.376 247.557C417.376 246.216 417.62 245.034 418.109 244.011C418.603 242.983 419.29 242.182 420.171 241.608C421.058 241.028 422.092 240.739 423.273 240.739C423.955 240.739 424.629 240.852 425.293 241.08C425.958 241.307 426.563 241.676 427.109 242.188C427.654 242.693 428.089 243.364 428.413 244.199C428.737 245.034 428.898 246.062 428.898 247.284V248.136H418.808V246.398H426.853C426.853 245.659 426.705 245 426.41 244.42C426.12 243.841 425.705 243.384 425.165 243.048C424.631 242.713 424.001 242.545 423.273 242.545C422.472 242.545 421.779 242.744 421.194 243.142C420.614 243.534 420.168 244.045 419.856 244.676C419.543 245.307 419.387 245.983 419.387 246.705V247.864C419.387 248.852 419.558 249.69 419.898 250.378C420.245 251.06 420.725 251.58 421.339 251.938C421.952 252.29 422.665 252.466 423.478 252.466C424.006 252.466 424.484 252.392 424.91 252.244C425.342 252.091 425.714 251.864 426.026 251.562C426.339 251.256 426.58 250.875 426.751 250.42L428.694 250.966C428.489 251.625 428.146 252.205 427.663 252.705C427.18 253.199 426.583 253.585 425.873 253.864C425.163 254.136 424.364 254.273 423.478 254.273Z" fill="black"/>
<circle cx="251" cy="244" r="22" fill="#78B500"/>
<path d="M251.543 249.159C250.793 249.159 250.124 249.03 249.537 248.773C248.954 248.515 248.49 248.157 248.145 247.699C247.804 247.237 247.618 246.701 247.588 246.091H249.02C249.05 246.466 249.179 246.79 249.406 247.062C249.634 247.331 249.931 247.54 250.298 247.688C250.666 247.835 251.073 247.909 251.52 247.909C252.02 247.909 252.463 247.822 252.849 247.648C253.236 247.473 253.539 247.231 253.759 246.92C253.978 246.61 254.088 246.25 254.088 245.841C254.088 245.413 253.982 245.036 253.77 244.71C253.558 244.381 253.247 244.123 252.838 243.938C252.429 243.752 251.929 243.659 251.338 243.659H250.406V242.409H251.338C251.8 242.409 252.205 242.326 252.554 242.159C252.906 241.992 253.181 241.758 253.378 241.455C253.579 241.152 253.679 240.795 253.679 240.386C253.679 239.992 253.592 239.65 253.418 239.358C253.243 239.066 252.997 238.839 252.679 238.676C252.365 238.513 251.993 238.432 251.565 238.432C251.164 238.432 250.785 238.506 250.429 238.653C250.077 238.797 249.789 239.008 249.565 239.284C249.342 239.557 249.221 239.886 249.202 240.273H247.838C247.861 239.663 248.045 239.129 248.389 238.67C248.734 238.208 249.185 237.848 249.741 237.591C250.302 237.333 250.918 237.205 251.588 237.205C252.308 237.205 252.925 237.35 253.44 237.642C253.955 237.93 254.351 238.311 254.628 238.784C254.904 239.258 255.043 239.769 255.043 240.318C255.043 240.973 254.87 241.532 254.526 241.994C254.185 242.456 253.721 242.777 253.134 242.955V243.045C253.868 243.167 254.442 243.479 254.855 243.983C255.268 244.483 255.474 245.102 255.474 245.841C255.474 246.473 255.302 247.042 254.957 247.545C254.616 248.045 254.151 248.439 253.56 248.727C252.969 249.015 252.296 249.159 251.543 249.159Z" fill="white"/>
<circle cx="589" cy="160" r="22" fill="#78B500"/>
<path d="M585.361 165V163.977L589.202 159.773C589.652 159.28 590.024 158.852 590.315 158.489C590.607 158.121 590.823 157.777 590.963 157.455C591.107 157.129 591.179 156.788 591.179 156.432C591.179 156.023 591.08 155.669 590.884 155.369C590.69 155.07 590.425 154.839 590.088 154.676C589.751 154.513 589.372 154.432 588.952 154.432C588.505 154.432 588.115 154.525 587.781 154.71C587.452 154.892 587.196 155.148 587.014 155.477C586.836 155.807 586.747 156.193 586.747 156.636H585.406C585.406 155.955 585.563 155.356 585.878 154.841C586.192 154.326 586.62 153.924 587.162 153.636C587.707 153.348 588.319 153.205 588.997 153.205C589.679 153.205 590.283 153.348 590.81 153.636C591.336 153.924 591.749 154.312 592.048 154.801C592.348 155.29 592.497 155.833 592.497 156.432C592.497 156.86 592.42 157.278 592.264 157.688C592.113 158.093 591.848 158.545 591.469 159.045C591.094 159.542 590.573 160.148 589.906 160.864L587.293 163.659V163.75H592.702V165H585.361Z" fill="white"/>
<g filter="url(#filter0_d_44_46)">
<rect x="613" y="96" width="158" height="42" rx="21" fill="#EE5013"/>
</g>
<path d="M639.706 122V110.364H643.774C644.585 110.364 645.253 110.504 645.78 110.784C646.306 111.061 646.698 111.434 646.956 111.903C647.214 112.369 647.342 112.886 647.342 113.455C647.342 113.955 647.253 114.367 647.075 114.693C646.901 115.019 646.67 115.277 646.382 115.466C646.098 115.655 645.789 115.795 645.456 115.886V116C645.812 116.023 646.17 116.148 646.53 116.375C646.89 116.602 647.191 116.928 647.433 117.352C647.676 117.777 647.797 118.295 647.797 118.909C647.797 119.492 647.664 120.017 647.399 120.483C647.134 120.949 646.715 121.318 646.143 121.591C645.571 121.864 644.827 122 643.911 122H639.706ZM641.115 120.75H643.911C644.831 120.75 645.484 120.572 645.871 120.216C646.261 119.856 646.456 119.42 646.456 118.909C646.456 118.515 646.356 118.152 646.155 117.818C645.954 117.481 645.668 117.212 645.297 117.011C644.926 116.807 644.486 116.705 643.979 116.705H641.115V120.75ZM641.115 115.477H643.729C644.153 115.477 644.536 115.394 644.876 115.227C645.221 115.061 645.494 114.826 645.695 114.523C645.899 114.22 646.001 113.864 646.001 113.455C646.001 112.943 645.823 112.509 645.467 112.153C645.111 111.794 644.547 111.614 643.774 111.614H641.115V115.477ZM655.43 118.432V113.273H656.771V122H655.43V120.523H655.339C655.135 120.966 654.817 121.343 654.385 121.653C653.953 121.96 653.408 122.114 652.749 122.114C652.203 122.114 651.718 121.994 651.294 121.756C650.87 121.513 650.536 121.15 650.294 120.665C650.052 120.176 649.93 119.561 649.93 118.818V113.273H651.271V118.727C651.271 119.364 651.449 119.871 651.805 120.25C652.165 120.629 652.624 120.818 653.18 120.818C653.514 120.818 653.853 120.733 654.197 120.562C654.546 120.392 654.838 120.131 655.072 119.778C655.311 119.426 655.43 118.977 655.43 118.432ZM663.023 113.273V114.409H658.5V113.273H663.023ZM659.818 111.182H661.159V119.5C661.159 119.879 661.214 120.163 661.324 120.352C661.438 120.538 661.581 120.663 661.756 120.727C661.934 120.788 662.121 120.818 662.318 120.818C662.466 120.818 662.587 120.811 662.682 120.795C662.777 120.777 662.852 120.761 662.909 120.75L663.182 121.955C663.091 121.989 662.964 122.023 662.801 122.057C662.638 122.095 662.432 122.114 662.182 122.114C661.803 122.114 661.432 122.032 661.068 121.869C660.708 121.706 660.409 121.458 660.17 121.125C659.936 120.792 659.818 120.371 659.818 119.864V111.182ZM668.835 113.273V114.409H664.312V113.273H668.835ZM665.631 111.182H666.972V119.5C666.972 119.879 667.027 120.163 667.136 120.352C667.25 120.538 667.394 120.663 667.568 120.727C667.746 120.788 667.934 120.818 668.131 120.818C668.278 120.818 668.4 120.811 668.494 120.795C668.589 120.777 668.665 120.761 668.722 120.75L668.994 121.955C668.903 121.989 668.777 122.023 668.614 122.057C668.451 122.095 668.244 122.114 667.994 122.114C667.616 122.114 667.244 122.032 666.881 121.869C666.521 121.706 666.222 121.458 665.983 121.125C665.748 120.792 665.631 120.371 665.631 119.864V111.182ZM674.304 122.182C673.516 122.182 672.825 121.994 672.23 121.619C671.639 121.244 671.177 120.72 670.844 120.045C670.514 119.371 670.349 118.583 670.349 117.682C670.349 116.773 670.514 115.979 670.844 115.301C671.177 114.623 671.639 114.097 672.23 113.722C672.825 113.347 673.516 113.159 674.304 113.159C675.092 113.159 675.781 113.347 676.372 113.722C676.967 114.097 677.429 114.623 677.759 115.301C678.092 115.979 678.259 116.773 678.259 117.682C678.259 118.583 678.092 119.371 677.759 120.045C677.429 120.72 676.967 121.244 676.372 121.619C675.781 121.994 675.092 122.182 674.304 122.182ZM674.304 120.977C674.902 120.977 675.395 120.824 675.781 120.517C676.168 120.21 676.454 119.807 676.639 119.307C676.825 118.807 676.918 118.265 676.918 117.682C676.918 117.098 676.825 116.555 676.639 116.051C676.454 115.547 676.168 115.14 675.781 114.83C675.395 114.519 674.902 114.364 674.304 114.364C673.705 114.364 673.213 114.519 672.827 114.83C672.44 115.14 672.154 115.547 671.969 116.051C671.783 116.555 671.69 117.098 671.69 117.682C671.69 118.265 671.783 118.807 671.969 119.307C672.154 119.807 672.44 120.21 672.827 120.517C673.213 120.824 673.705 120.977 674.304 120.977ZM681.646 116.75V122H680.305V113.273H681.601V114.636H681.714C681.919 114.193 682.23 113.837 682.646 113.568C683.063 113.295 683.601 113.159 684.26 113.159C684.851 113.159 685.368 113.28 685.811 113.523C686.254 113.761 686.599 114.125 686.845 114.614C687.091 115.098 687.214 115.712 687.214 116.455V122H685.874V116.545C685.874 115.86 685.696 115.326 685.339 114.943C684.983 114.557 684.495 114.364 683.874 114.364C683.446 114.364 683.063 114.456 682.726 114.642C682.393 114.828 682.129 115.098 681.936 115.455C681.743 115.811 681.646 116.242 681.646 116.75ZM703.71 114H702.301C702.218 113.595 702.072 113.239 701.864 112.932C701.659 112.625 701.409 112.367 701.114 112.159C700.822 111.947 700.498 111.788 700.142 111.682C699.786 111.576 699.415 111.523 699.028 111.523C698.324 111.523 697.686 111.701 697.114 112.057C696.545 112.413 696.093 112.938 695.756 113.631C695.422 114.324 695.256 115.174 695.256 116.182C695.256 117.189 695.422 118.04 695.756 118.733C696.093 119.426 696.545 119.951 697.114 120.307C697.686 120.663 698.324 120.841 699.028 120.841C699.415 120.841 699.786 120.788 700.142 120.682C700.498 120.576 700.822 120.419 701.114 120.21C701.409 119.998 701.659 119.739 701.864 119.432C702.072 119.121 702.218 118.765 702.301 118.364H703.71C703.604 118.958 703.411 119.491 703.131 119.96C702.85 120.43 702.502 120.83 702.085 121.159C701.669 121.485 701.201 121.733 700.682 121.903C700.167 122.074 699.616 122.159 699.028 122.159C698.036 122.159 697.153 121.917 696.381 121.432C695.608 120.947 695 120.258 694.557 119.364C694.114 118.47 693.892 117.409 693.892 116.182C693.892 114.955 694.114 113.894 694.557 113C695 112.106 695.608 111.417 696.381 110.932C697.153 110.447 698.036 110.205 699.028 110.205C699.616 110.205 700.167 110.29 700.682 110.46C701.201 110.631 701.669 110.881 702.085 111.21C702.502 111.536 702.85 111.934 703.131 112.403C703.411 112.869 703.604 113.402 703.71 114ZM707.146 110.364V122H705.805V110.364H707.146ZM709.602 122V113.273H710.943V122H709.602ZM710.284 111.818C710.023 111.818 709.797 111.729 709.608 111.551C709.422 111.373 709.33 111.159 709.33 110.909C709.33 110.659 709.422 110.445 709.608 110.267C709.797 110.089 710.023 110 710.284 110C710.545 110 710.769 110.089 710.955 110.267C711.144 110.445 711.239 110.659 711.239 110.909C711.239 111.159 711.144 111.373 710.955 111.551C710.769 111.729 710.545 111.818 710.284 111.818ZM716.945 122.182C716.126 122.182 715.422 121.989 714.831 121.602C714.24 121.216 713.786 120.684 713.467 120.006C713.149 119.328 712.99 118.553 712.99 117.682C712.99 116.795 713.153 116.013 713.479 115.335C713.808 114.653 714.267 114.121 714.854 113.739C715.445 113.352 716.134 113.159 716.922 113.159C717.536 113.159 718.089 113.273 718.581 113.5C719.073 113.727 719.477 114.045 719.791 114.455C720.106 114.864 720.301 115.341 720.376 115.886H719.036C718.933 115.489 718.706 115.136 718.354 114.83C718.005 114.519 717.536 114.364 716.945 114.364C716.422 114.364 715.964 114.5 715.57 114.773C715.179 115.042 714.875 115.422 714.655 115.915C714.439 116.403 714.331 116.977 714.331 117.636C714.331 118.311 714.437 118.898 714.649 119.398C714.865 119.898 715.168 120.286 715.558 120.562C715.952 120.839 716.414 120.977 716.945 120.977C717.293 120.977 717.609 120.917 717.893 120.795C718.178 120.674 718.418 120.5 718.615 120.273C718.812 120.045 718.952 119.773 719.036 119.455H720.376C720.301 119.97 720.113 120.434 719.814 120.847C719.518 121.256 719.126 121.581 718.638 121.824C718.153 122.062 717.589 122.182 716.945 122.182ZM723.587 118.818L723.564 117.159H723.837L727.655 113.273H729.314L725.246 117.386H725.132L723.587 118.818ZM722.337 122V110.364H723.678V122H722.337ZM727.882 122L724.473 117.682L725.428 116.75L729.587 122H727.882ZM734.339 122.182C733.499 122.182 732.773 121.996 732.163 121.625C731.557 121.25 731.089 120.727 730.76 120.057C730.434 119.383 730.271 118.598 730.271 117.705C730.271 116.811 730.434 116.023 730.76 115.341C731.089 114.655 731.548 114.121 732.135 113.739C732.726 113.352 733.415 113.159 734.203 113.159C734.658 113.159 735.107 113.235 735.55 113.386C735.993 113.538 736.396 113.784 736.76 114.125C737.124 114.462 737.413 114.909 737.629 115.466C737.845 116.023 737.953 116.708 737.953 117.523V118.091H731.226V116.932H736.589C736.589 116.439 736.491 116 736.294 115.614C736.101 115.227 735.824 114.922 735.464 114.699C735.108 114.475 734.688 114.364 734.203 114.364C733.669 114.364 733.207 114.496 732.817 114.761C732.43 115.023 732.133 115.364 731.925 115.784C731.716 116.205 731.612 116.655 731.612 117.136V117.909C731.612 118.568 731.726 119.127 731.953 119.585C732.184 120.04 732.504 120.386 732.913 120.625C733.322 120.86 733.798 120.977 734.339 120.977C734.692 120.977 735.01 120.928 735.294 120.83C735.582 120.727 735.83 120.576 736.038 120.375C736.247 120.17 736.408 119.917 736.521 119.614L737.817 119.977C737.68 120.417 737.451 120.803 737.129 121.136C736.807 121.466 736.41 121.723 735.936 121.909C735.463 122.091 734.93 122.182 734.339 122.182ZM743.288 122.182C742.561 122.182 741.919 121.998 741.362 121.631C740.805 121.259 740.37 120.737 740.055 120.062C739.741 119.384 739.584 118.583 739.584 117.659C739.584 116.742 739.741 115.947 740.055 115.273C740.37 114.598 740.807 114.078 741.368 113.71C741.929 113.343 742.576 113.159 743.311 113.159C743.879 113.159 744.328 113.254 744.658 113.443C744.991 113.629 745.245 113.841 745.419 114.08C745.597 114.314 745.735 114.508 745.834 114.659H745.947V110.364H747.288V122H745.993V120.659H745.834C745.735 120.818 745.595 121.019 745.413 121.261C745.232 121.5 744.972 121.714 744.635 121.903C744.298 122.089 743.849 122.182 743.288 122.182ZM743.47 120.977C744.008 120.977 744.463 120.837 744.834 120.557C745.205 120.273 745.487 119.881 745.68 119.381C745.874 118.877 745.97 118.295 745.97 117.636C745.97 116.985 745.875 116.415 745.686 115.926C745.497 115.434 745.216 115.051 744.845 114.778C744.474 114.502 744.016 114.364 743.47 114.364C742.902 114.364 742.429 114.509 742.05 114.801C741.675 115.089 741.393 115.481 741.203 115.977C741.018 116.47 740.925 117.023 740.925 117.636C740.925 118.258 741.019 118.822 741.209 119.33C741.402 119.833 741.686 120.235 742.061 120.534C742.44 120.83 742.91 120.977 743.47 120.977Z" fill="white"/>
<path d="M83 122L88.4493 144.442L105.16 128.502L83 122ZM562.946 120.3C562.04 120.862 560.941 121.537 559.658 122.313L561.728 125.735C563.024 124.951 564.135 124.269 565.054 123.7L562.946 120.3ZM552.929 126.303C550.873 127.499 548.593 128.806 546.098 130.21L548.06 133.696C550.572 132.283 552.869 130.965 554.94 129.76L552.929 126.303ZM539.164 134.051C536.968 135.248 534.651 136.494 532.22 137.781L534.091 141.317C536.538 140.022 538.869 138.768 541.079 137.563L539.164 134.051ZM525.306 141.387C523.038 142.553 520.688 143.745 518.259 144.957L520.046 148.536C522.489 147.316 524.853 146.118 527.135 144.945L525.306 141.387ZM511.121 148.469C508.837 149.576 506.493 150.696 504.092 151.826L505.796 155.445C508.21 154.308 510.568 153.182 512.865 152.068L511.121 148.469ZM496.886 155.166C494.551 156.232 492.168 157.303 489.739 158.378L491.358 162.036C493.801 160.955 496.198 159.877 498.547 158.805L496.886 155.166ZM482.5 161.532C480.119 162.552 477.699 163.573 475.241 164.592L476.773 168.287C479.246 167.262 481.68 166.235 484.076 165.208L482.5 161.532ZM467.95 167.565C465.536 168.533 463.088 169.496 460.61 170.455L462.052 174.186C464.546 173.221 467.009 172.251 469.438 171.278L467.95 167.565ZM453.253 173.248C450.812 174.157 448.343 175.06 445.848 175.954L447.198 179.719C449.709 178.82 452.193 177.911 454.649 176.996L453.253 173.248ZM438.416 178.563C435.953 179.41 433.466 180.248 430.957 181.074L432.208 184.873C434.734 184.041 437.238 183.198 439.717 182.346L438.416 178.563ZM423.446 183.491C420.963 184.272 418.459 185.041 415.936 185.797L417.084 189.629C419.625 188.868 422.146 188.093 424.646 187.307L423.446 183.491ZM408.348 188.011C405.846 188.722 403.326 189.419 400.79 190.1L401.828 193.963C404.383 193.277 406.921 192.575 409.441 191.859L408.348 188.011ZM393.132 192.096C390.611 192.734 388.074 193.355 385.523 193.959L386.444 197.851C389.015 197.243 391.572 196.617 394.113 195.975L393.132 192.096ZM377.833 195.715C375.283 196.277 372.72 196.82 370.145 197.344L370.942 201.263C373.539 200.735 376.122 200.188 378.693 199.622L377.833 195.715ZM362.421 198.848C359.847 199.327 357.262 199.786 354.667 200.223L355.332 204.168C357.95 203.727 360.557 203.264 363.153 202.78L362.421 198.848ZM346.91 201.461C344.316 201.851 341.713 202.22 339.102 202.564L339.625 206.53C342.261 206.182 344.888 205.81 347.506 205.416L346.91 201.461ZM331.316 203.519C328.713 203.813 326.103 204.083 323.486 204.328L323.859 208.311C326.502 208.063 329.137 207.791 331.765 207.493L331.316 203.519ZM315.657 204.983C313.048 205.175 310.433 205.342 307.814 205.481L308.026 209.475C310.673 209.334 313.315 209.167 315.951 208.972L315.657 204.983ZM299.956 205.815C297.344 205.899 294.728 205.954 292.109 205.981L292.15 209.981C294.798 209.954 297.443 209.898 300.084 209.813L299.956 205.815ZM284.242 205.974C281.63 205.943 279.016 205.881 276.4 205.789L276.26 209.787C278.907 209.88 281.552 209.942 284.194 209.974L284.242 205.974ZM268.553 205.42C265.943 205.266 263.332 205.081 260.721 204.863L260.389 208.849C263.032 209.07 265.676 209.258 268.317 209.413L268.553 205.42ZM252.912 204.113C250.31 203.83 247.708 203.514 245.108 203.164L244.574 207.128C247.208 207.483 249.844 207.803 252.479 208.09L252.912 204.113ZM237.361 202.015C234.78 201.598 232.201 201.146 229.625 200.658L228.88 204.588C231.492 205.083 234.106 205.541 236.722 205.964L237.361 202.015ZM221.945 199.092C219.396 198.536 216.85 197.944 214.309 197.314L213.347 201.196C215.925 201.835 218.507 202.436 221.092 203L221.945 199.092ZM206.71 195.315C204.205 194.617 201.704 193.881 199.209 193.108L198.024 196.928C200.557 197.714 203.094 198.46 205.637 199.168L206.71 195.315ZM191.739 190.67C189.279 189.827 186.824 188.944 184.376 188.022L182.966 191.766C185.452 192.702 187.944 193.598 190.442 194.454L191.739 190.67ZM177.086 185.152C174.67 184.157 172.26 183.123 169.858 182.048L168.224 185.699C170.663 186.791 173.111 187.841 175.565 188.851L177.086 185.152ZM162.789 178.755C160.441 177.617 158.1 176.438 155.768 175.219L153.914 178.763C156.283 180.002 158.66 181.199 161.045 182.354L162.789 178.755ZM148.89 171.486C146.629 170.214 144.377 168.901 142.135 167.548L140.068 170.973C142.346 172.347 144.633 173.68 146.929 174.972L148.89 171.486ZM135.435 163.364C133.271 161.965 131.116 160.527 128.97 159.049L126.7 162.342C128.878 163.844 131.067 165.304 133.265 166.724L135.435 163.364ZM122.577 154.5C120.471 152.954 118.377 151.368 116.292 149.741L113.831 152.894C115.946 154.545 118.072 156.155 120.209 157.724L122.577 154.5ZM110.235 144.87C108.227 143.207 106.229 141.504 104.242 139.761L101.604 142.767C103.619 144.536 105.646 146.263 107.684 147.951L110.235 144.87ZM98.4114 134.497C96.5233 132.745 94.6458 130.954 92.7794 129.125L89.9795 131.981C91.8716 133.836 93.7753 135.652 95.69 137.429L98.4114 134.497ZM83 122L88.4493 144.442L105.16 128.502L83 122ZM562.946 120.3C562.04 120.862 560.941 121.537 559.658 122.313L561.728 125.735C563.024 124.951 564.135 124.269 565.054 123.7L562.946 120.3ZM552.929 126.303C550.873 127.499 548.593 128.806 546.098 130.21L548.06 133.696C550.572 132.283 552.869 130.965 554.94 129.76L552.929 126.303ZM539.164 134.051C536.968 135.248 534.651 136.494 532.22 137.781L534.091 141.317C536.538 140.022 538.869 138.768 541.079 137.563L539.164 134.051ZM525.306 141.387C523.038 142.553 520.688 143.745 518.259 144.957L520.046 148.536C522.489 147.316 524.853 146.118 527.135 144.945L525.306 141.387ZM511.121 148.469C508.837 149.576 506.493 150.696 504.092 151.826L505.796 155.445C508.21 154.308 510.568 153.182 512.865 152.068L511.121 148.469ZM496.886 155.166C494.551 156.232 492.168 157.303 489.739 158.378L491.358 162.036C493.801 160.955 496.198 159.877 498.547 158.805L496.886 155.166ZM482.5 161.532C480.119 162.552 477.699 163.573 475.241 164.592L476.773 168.287C479.246 167.262 481.68 166.235 484.076 165.208L482.5 161.532ZM467.95 167.565C465.536 168.533 463.088 169.496 460.61 170.455L462.052 174.186C464.546 173.221 467.009 172.251 469.438 171.278L467.95 167.565ZM453.253 173.248C450.812 174.157 448.343 175.06 445.848 175.954L447.198 179.719C449.709 178.82 452.193 177.911 454.649 176.996L453.253 173.248ZM438.416 178.563C435.953 179.41 433.466 180.248 430.957 181.074L432.208 184.873C434.734 184.041 437.238 183.198 439.717 182.346L438.416 178.563ZM423.446 183.491C420.963 184.272 418.459 185.041 415.936 185.797L417.084 189.629C419.625 188.868 422.146 188.093 424.646 187.307L423.446 183.491ZM408.348 188.011C405.846 188.722 403.326 189.419 400.79 190.1L401.828 193.963C404.383 193.277 406.921 192.575 409.441 191.859L408.348 188.011ZM393.132 192.096C390.611 192.734 388.074 193.355 385.523 193.959L386.444 197.851C389.015 197.243 391.572 196.617 394.113 195.975L393.132 192.096ZM377.833 195.715C375.283 196.277 372.72 196.82 370.145 197.344L370.942 201.263C373.539 200.735 376.122 200.188 378.693 199.622L377.833 195.715ZM362.421 198.848C359.847 199.327 357.262 199.786 354.667 200.223L355.332 204.168C357.95 203.727 360.557 203.264 363.153 202.78L362.421 198.848ZM346.91 201.461C344.316 201.851 341.713 202.22 339.102 202.564L339.625 206.53C342.261 206.182 344.888 205.81 347.506 205.416L346.91 201.461ZM331.316 203.519C328.713 203.813 326.103 204.083 323.486 204.328L323.859 208.311C326.502 208.063 329.137 207.791 331.765 207.493L331.316 203.519ZM315.657 204.983C313.048 205.175 310.433 205.342 307.814 205.481L308.026 209.475C310.673 209.334 313.315 209.167 315.951 208.972L315.657 204.983ZM299.956 205.815C297.344 205.899 294.728 205.954 292.109 205.981L292.15 209.981C294.798 209.954 297.443 209.898 300.084 209.813L299.956 205.815ZM284.242 205.974C281.63 205.943 279.016 205.881 276.4 205.789L276.26 209.787C278.907 209.88 281.552 209.942 284.194 209.974L284.242 205.974ZM268.553 205.42C265.943 205.266 263.332 205.081 260.721 204.863L260.389 208.849C263.032 209.07 265.676 209.258 268.317 209.413L268.553 205.42ZM252.912 204.113C250.31 203.83 247.708 203.514 245.108 203.164L244.574 207.128C247.208 207.483 249.844 207.803 252.479 208.09L252.912 204.113ZM237.361 202.015C234.78 201.598 232.201 201.146 229.625 200.658L228.88 204.588C231.492 205.083 234.106 205.541 236.722 205.964L237.361 202.015ZM221.945 199.092C219.396 198.536 216.85 197.944 214.309 197.314L213.347 201.196C215.925 201.835 218.507 202.436 221.092 203L221.945 199.092ZM206.71 195.315C204.205 194.617 201.704 193.881 199.209 193.108L198.024 196.928C200.557 197.714 203.094 198.46 205.637 199.168L206.71 195.315ZM191.739 190.67C189.279 189.827 186.824 188.944 184.376 188.022L182.966 191.766C185.452 192.702 187.944 193.598 190.442 194.454L191.739 190.67ZM177.086 185.152C174.67 184.157 172.26 183.123 169.858 182.048L168.224 185.699C170.663 186.791 173.111 187.841 175.565 188.851L177.086 185.152ZM162.789 178.755C160.441 177.617 158.1 176.438 155.768 175.219L153.914 178.763C156.283 180.002 158.66 181.199 161.045 182.354L162.789 178.755ZM148.89 171.486C146.629 170.214 144.377 168.901 142.135 167.548L140.068 170.973C142.346 172.347 144.633 173.68 146.929 174.972L148.89 171.486ZM135.435 163.364C133.271 161.965 131.116 160.527 128.97 159.049L126.7 162.342C128.878 163.844 131.067 165.304 133.265 166.724L135.435 163.364ZM122.577 154.5C120.471 152.954 118.377 151.368 116.292 149.741L113.831 152.894C115.946 154.545 118.072 156.155 120.209 157.724L122.577 154.5ZM110.235 144.87C108.227 143.207 106.229 141.504 104.242 139.761L101.604 142.767C103.619 144.536 105.646 146.263 107.684 147.951L110.235 144.87ZM98.4114 134.497C96.5233 132.745 94.6458 130.954 92.7794 129.125L89.9795 131.981C91.8716 133.836 93.7753 135.652 95.69 137.429L98.4114 134.497Z" fill="#DDDDDD"/>
<defs>
<filter id="filter0_d_44_46" x="608" y="92" width="168" height="52" filterUnits="userSpaceOnUse" color-interpolation-filters="sRGB">
<feFlood flood-opacity="0" result="BackgroundImageFix"/>
<feColorMatrix in="SourceAlpha" type="matrix" values="0 0 0 0 0 0 0 0 0 0 0 0 0 0 0 0 0 0 127 0" result="hardAlpha"/>
<feOffset dy="1"/>
<feGaussianBlur stdDeviation="2.5"/>
<feComposite in2="hardAlpha" operator="out"/>
<feColorMatrix type="matrix" values="0 0 0 0 0 0 0 0 0 0 0 0 0 0 0 0 0 0 0.25 0"/>
<feBlend mode="normal" in2="BackgroundImageFix" result="effect1_dropShadow_44_46"/>
<feBlend mode="normal" in="SourceGraphic" in2="effect1_dropShadow_44_46" result="shape"/>
</filter>
</defs>
</svg>
