<svg width="998" height="561" viewBox="0 0 998 561" fill="none" xmlns="http://www.w3.org/2000/svg">
<path d="M459 19C459 14.5817 462.582 11 467 11H978C982.418 11 986 14.5817 986 19V81C986 85.4183 982.418 89 978 89H467C462.582 89 459 85.4183 459 81V19Z" fill="#D9D9D9"/>
<path d="M459 27C459 18.1634 466.163 11 475 11H970C978.837 11 986 18.1634 986 27V73C986 81.8366 978.837 89 970 89H475C466.163 89 459 81.8366 459 73V27Z" fill="#D9D9D9"/>
<path d="M459 125C459 120.582 462.582 117 467 117H978C982.418 117 986 120.582 986 125V149C986 153.418 982.418 157 978 157H467C462.582 157 459 153.418 459 149V125Z" fill="#D9D9D9"/>
<path d="M459 125.205C459 120.674 466.163 117 475 117H970C978.837 117 986 120.674 986 125.205V148.795C986 153.326 978.837 157 970 157H475C466.163 157 459 153.326 459 148.795V125.205Z" fill="#D9D9D9"/>
<path d="M627 190C627 187.791 628.791 186 631 186H982C984.209 186 986 187.791 986 190V202C986 204.209 984.209 206 982 206H631C628.791 206 627 204.209 627 202V190Z" fill="#D9D9D9"/>
<path d="M627 190.103C627 187.837 631.88 186 637.899 186H975.101C981.12 186 986 187.837 986 190.103V201.897C986 204.163 981.12 206 975.101 206H637.899C631.88 206 627 204.163 627 201.897V190.103Z" fill="#D9D9D9"/>
<path d="M627 225H900V245H627V225Z" fill="#D9D9D9"/>
<path d="M627 229.103C627 226.837 630.711 225 635.288 225H891.712C896.289 225 900 226.837 900 229.103V240.897C900 243.163 896.289 245 891.712 245H635.288C630.711 245 627 243.163 627 240.897V229.103Z" fill="#D9D9D9"/>
<path d="M627 268C627 265.791 628.791 264 631 264H730C732.209 264 734 265.791 734 268V280C734 282.209 732.209 284 730 284H631C628.791 284 627 282.209 627 280V268Z" fill="#D9D9D9"/>
<path d="M627 268.103C627 265.837 628.454 264 630.249 264H730.751C732.546 264 734 265.837 734 268.103V279.897C734 282.163 732.546 284 730.751 284H630.249C628.454 284 627 282.163 627 279.897V268.103Z" fill="#D9D9D9"/>
<path d="M459 202C459 193.163 466.163 186 475 186H594C602.837 186 610 193.163 610 202V268C610 276.837 602.837 284 594 284H475C466.163 284 459 276.837 459 268V202Z" fill="#D9D9D9"/>
<path d="M459 206.103C459 195 461.053 186 463.584 186H605.416C607.947 186 610 195 610 206.103V263.897C610 275 607.947 284 605.416 284H463.584C461.053 284 459 275 459 263.897V206.103Z" fill="#D9D9D9"/>
<path d="M459 194C459 189.582 462.582 186 467 186H602C606.418 186 610 189.582 610 194V276C610 280.418 606.418 284 602 284H467C462.582 284 459 280.418 459 276V194Z" fill="#D9D9D9"/>
<path d="M459 206.103C459 195 461.053 186 463.584 186H605.416C607.947 186 610 195 610 206.103V263.897C610 275 607.947 284 605.416 284H463.584C461.053 284 459 275 459 263.897V206.103Z" fill="#D9D9D9"/>
<path d="M627 307C627 304.791 628.791 303 631 303H982C984.209 303 986 304.791 986 307V319C986 321.209 984.209 323 982 323H631C628.791 323 627 321.209 627 319V307Z" fill="#D9D9D9"/>
<path d="M627 307.103C627 304.837 631.88 303 637.899 303H975.101C981.12 303 986 304.837 986 307.103V318.897C986 321.163 981.12 323 975.101 323H637.899C631.88 323 627 321.163 627 318.897V307.103Z" fill="#D9D9D9"/>
<path d="M627 342H900V362H627V342Z" fill="#D9D9D9"/>
<path d="M627 346.103C627 343.837 630.711 342 635.288 342H891.712C896.289 342 900 343.837 900 346.103V357.897C900 360.163 896.289 362 891.712 362H635.288C630.711 362 627 360.163 627 357.897V346.103Z" fill="#D9D9D9"/>
<path d="M627 385C627 382.791 628.791 381 631 381H730C732.209 381 734 382.791 734 385V397C734 399.209 732.209 401 730 401H631C628.791 401 627 399.209 627 397V385Z" fill="#D9D9D9"/>
<path d="M627 385.103C627 382.837 628.454 381 630.249 381H730.751C732.546 381 734 382.837 734 385.103V396.897C734 399.163 732.546 401 730.751 401H630.249C628.454 401 627 399.163 627 396.897V385.103Z" fill="#D9D9D9"/>
<path d="M459 319C459 310.163 466.163 303 475 303H594C602.837 303 610 310.163 610 319V385C610 393.837 602.837 401 594 401H475C466.163 401 459 393.837 459 385V319Z" fill="#D9D9D9"/>
<path d="M459 323.103C459 312 461.053 303 463.584 303H605.416C607.947 303 610 312 610 323.103V380.897C610 392 607.947 401 605.416 401H463.584C461.053 401 459 392 459 380.897V323.103Z" fill="#D9D9D9"/>
<path d="M459 311C459 306.582 462.582 303 467 303H602C606.418 303 610 306.582 610 311V393C610 397.418 606.418 401 602 401H467C462.582 401 459 397.418 459 393V311Z" fill="#D9D9D9"/>
<path d="M459 323.103C459 312 461.053 303 463.584 303H605.416C607.947 303 610 312 610 323.103V380.897C610 392 607.947 401 605.416 401H463.584C461.053 401 459 392 459 380.897V323.103Z" fill="#D9D9D9"/>
<path d="M627 433C627 430.791 628.791 429 631 429H982C984.209 429 986 430.791 986 433V445C986 447.209 984.209 449 982 449H631C628.791 449 627 447.209 627 445V433Z" fill="#D9D9D9"/>
<path d="M627 433.103C627 430.837 631.88 429 637.899 429H975.101C981.12 429 986 430.837 986 433.103V444.897C986 447.163 981.12 449 975.101 449H637.899C631.88 449 627 447.163 627 444.897V433.103Z" fill="#D9D9D9"/>
<path d="M627 468H900V488H627V468Z" fill="#D9D9D9"/>
<path d="M627 472.103C627 469.837 630.711 468 635.288 468H891.712C896.289 468 900 469.837 900 472.103V483.897C900 486.163 896.289 488 891.712 488H635.288C630.711 488 627 486.163 627 483.897V472.103Z" fill="#D9D9D9"/>
<path d="M627 511C627 508.791 628.791 507 631 507H730C732.209 507 734 508.791 734 511V523C734 525.209 732.209 527 730 527H631C628.791 527 627 525.209 627 523V511Z" fill="#D9D9D9"/>
<path d="M627 511.103C627 508.837 628.454 507 630.249 507H730.751C732.546 507 734 508.837 734 511.103V522.897C734 525.163 732.546 527 730.751 527H630.249C628.454 527 627 525.163 627 522.897V511.103Z" fill="#D9D9D9"/>
<path d="M459 445C459 436.163 466.163 429 475 429H594C602.837 429 610 436.163 610 445V511C610 519.837 602.837 527 594 527H475C466.163 527 459 519.837 459 511V445Z" fill="#D9D9D9"/>
<path d="M459 449.103C459 438 461.053 429 463.584 429H605.416C607.947 429 610 438 610 449.103V506.897C610 518 607.947 527 605.416 527H463.584C461.053 527 459 518 459 506.897V449.103Z" fill="#D9D9D9"/>
<path d="M459 437C459 432.582 462.582 429 467 429H602C606.418 429 610 432.582 610 437V519C610 523.418 606.418 527 602 527H467C462.582 527 459 523.418 459 519V437Z" fill="#D9D9D9"/>
<path d="M459 449.103C459 438 461.053 429 463.584 429H605.416C607.947 429 610 438 610 449.103V506.897C610 518 607.947 527 605.416 527H463.584C461.053 527 459 518 459 506.897V449.103Z" fill="#D9D9D9"/>
<rect x="441.5" y="180.5" width="555" height="372" rx="6.5" stroke="#DE2525" stroke-width="3"/>
<rect x="441.5" y="110.5" width="555" height="54" rx="6.5" stroke="#DE2525" stroke-width="3"/>
<rect x="441.5" y="1.5" width="555" height="97" rx="6.5" stroke="#DE2525" stroke-width="3"/>
<path d="M683.849 354V330.727H686.668V351.5H697.486V354H683.849ZM701.486 354V336.545H704.168V354H701.486ZM702.849 333.636C702.327 333.636 701.876 333.458 701.497 333.102C701.126 332.746 700.94 332.318 700.94 331.818C700.94 331.318 701.126 330.89 701.497 330.534C701.876 330.178 702.327 330 702.849 330C703.372 330 703.819 330.178 704.19 330.534C704.569 330.89 704.759 331.318 704.759 331.818C704.759 332.318 704.569 332.746 704.19 333.102C703.819 333.458 703.372 333.636 702.849 333.636ZM721.443 340.455L719.034 341.136C718.883 340.735 718.659 340.345 718.364 339.966C718.076 339.58 717.682 339.261 717.182 339.011C716.682 338.761 716.042 338.636 715.261 338.636C714.193 338.636 713.303 338.883 712.591 339.375C711.886 339.86 711.534 340.477 711.534 341.227C711.534 341.894 711.777 342.42 712.261 342.807C712.746 343.193 713.504 343.515 714.534 343.773L717.125 344.409C718.686 344.788 719.848 345.367 720.614 346.148C721.379 346.92 721.761 347.917 721.761 349.136C721.761 350.136 721.473 351.03 720.898 351.818C720.33 352.606 719.534 353.227 718.511 353.682C717.489 354.136 716.299 354.364 714.943 354.364C713.163 354.364 711.689 353.977 710.523 353.205C709.356 352.432 708.617 351.303 708.307 349.818L710.852 349.182C711.095 350.121 711.553 350.826 712.227 351.295C712.909 351.765 713.799 352 714.898 352C716.148 352 717.14 351.735 717.875 351.205C718.617 350.667 718.989 350.023 718.989 349.273C718.989 348.667 718.777 348.159 718.352 347.75C717.928 347.333 717.277 347.023 716.398 346.818L713.489 346.136C711.89 345.758 710.716 345.17 709.966 344.375C709.223 343.572 708.852 342.568 708.852 341.364C708.852 340.379 709.129 339.508 709.682 338.75C710.242 337.992 711.004 337.398 711.966 336.966C712.936 336.534 714.034 336.318 715.261 336.318C716.989 336.318 718.345 336.697 719.33 337.455C720.322 338.212 721.027 339.212 721.443 340.455ZM733.389 336.545V338.818H724.344V336.545H733.389ZM726.98 332.364H729.662V349C729.662 349.758 729.772 350.326 729.991 350.705C730.219 351.076 730.507 351.326 730.855 351.455C731.211 351.576 731.586 351.636 731.98 351.636C732.276 351.636 732.518 351.621 732.707 351.591C732.897 351.553 733.048 351.523 733.162 351.5L733.707 353.909C733.526 353.977 733.272 354.045 732.946 354.114C732.62 354.189 732.207 354.227 731.707 354.227C730.95 354.227 730.207 354.064 729.48 353.739C728.76 353.413 728.162 352.917 727.685 352.25C727.215 351.583 726.98 350.742 726.98 349.727V332.364Z" fill="black"/>
<path d="M689.71 35.7273V59H686.983L674.301 40.7273H674.074V59H671.256V35.7273H673.983L686.71 54.0455H686.938V35.7273H689.71ZM700.122 59.4091C699.016 59.4091 698.012 59.2008 697.111 58.7841C696.209 58.3598 695.493 57.75 694.963 56.9545C694.433 56.1515 694.168 55.1818 694.168 54.0455C694.168 53.0455 694.365 52.2348 694.759 51.6136C695.152 50.9848 695.679 50.4924 696.338 50.1364C696.997 49.7803 697.724 49.5152 698.52 49.3409C699.323 49.1591 700.13 49.0152 700.94 48.9091C702.001 48.7727 702.861 48.6705 703.52 48.6023C704.187 48.5265 704.671 48.4015 704.974 48.2273C705.285 48.053 705.44 47.75 705.44 47.3182V47.2273C705.44 46.1061 705.134 45.2348 704.52 44.6136C703.914 43.9924 702.993 43.6818 701.759 43.6818C700.478 43.6818 699.474 43.9621 698.747 44.5227C698.02 45.0833 697.509 45.6818 697.213 46.3182L694.668 45.4091C695.122 44.3485 695.728 43.5227 696.486 42.9318C697.251 42.3333 698.084 41.9167 698.986 41.6818C699.895 41.4394 700.789 41.3182 701.668 41.3182C702.228 41.3182 702.872 41.3864 703.599 41.5227C704.334 41.6515 705.043 41.9205 705.724 42.3295C706.414 42.7386 706.986 43.3561 707.44 44.1818C707.895 45.0076 708.122 46.1136 708.122 47.5V59H705.44V56.6364H705.304C705.122 57.0152 704.819 57.4205 704.395 57.8523C703.971 58.2841 703.406 58.6515 702.702 58.9545C701.997 59.2576 701.137 59.4091 700.122 59.4091ZM700.531 57C701.592 57 702.486 56.7917 703.213 56.375C703.948 55.9583 704.501 55.4205 704.872 54.7614C705.251 54.1023 705.44 53.4091 705.44 52.6818V50.2273C705.327 50.3636 705.077 50.4886 704.69 50.6023C704.312 50.7083 703.872 50.803 703.372 50.8864C702.88 50.9621 702.399 51.0303 701.929 51.0909C701.467 51.1439 701.092 51.1894 700.804 51.2273C700.107 51.3182 699.455 51.4659 698.849 51.6705C698.251 51.8674 697.766 52.1667 697.395 52.5682C697.031 52.9621 696.849 53.5 696.849 54.1818C696.849 55.1136 697.194 55.8182 697.884 56.2955C698.58 56.7652 699.463 57 700.531 57ZM726.665 41.5455L720.21 59H717.483L711.028 41.5455H713.938L718.756 55.4545H718.938L723.756 41.5455H726.665ZM730.568 59V35.7273H733.25V44.3182H733.477C733.674 44.0152 733.947 43.6288 734.295 43.1591C734.652 42.6818 735.159 42.2576 735.818 41.8864C736.485 41.5076 737.386 41.3182 738.523 41.3182C739.992 41.3182 741.288 41.6856 742.409 42.4205C743.53 43.1553 744.405 44.197 745.034 45.5455C745.663 46.8939 745.977 48.4848 745.977 50.3182C745.977 52.1667 745.663 53.7689 745.034 55.125C744.405 56.4735 743.534 57.5189 742.42 58.2614C741.307 58.9962 740.023 59.3636 738.568 59.3636C737.447 59.3636 736.549 59.178 735.875 58.8068C735.201 58.428 734.682 58 734.318 57.5227C733.955 57.0379 733.674 56.6364 733.477 56.3182H733.159V59H730.568ZM733.205 50.2727C733.205 51.5909 733.398 52.7538 733.784 53.7614C734.17 54.7614 734.735 55.5455 735.477 56.1136C736.22 56.6742 737.129 56.9545 738.205 56.9545C739.326 56.9545 740.261 56.6591 741.011 56.0682C741.769 55.4697 742.337 54.6667 742.716 53.6591C743.102 52.6439 743.295 51.5152 743.295 50.2727C743.295 49.0455 743.106 47.9394 742.727 46.9545C742.356 45.9621 741.792 45.178 741.034 44.6023C740.284 44.0189 739.341 43.7273 738.205 43.7273C737.114 43.7273 736.197 44.0038 735.455 44.5568C734.712 45.1023 734.152 45.8674 733.773 46.8523C733.394 47.8295 733.205 48.9697 733.205 50.2727ZM755.216 59.4091C754.11 59.4091 753.106 59.2008 752.205 58.7841C751.303 58.3598 750.587 57.75 750.057 56.9545C749.527 56.1515 749.261 55.1818 749.261 54.0455C749.261 53.0455 749.458 52.2348 749.852 51.6136C750.246 50.9848 750.773 50.4924 751.432 50.1364C752.091 49.7803 752.818 49.5152 753.614 49.3409C754.417 49.1591 755.223 49.0152 756.034 48.9091C757.095 48.7727 757.955 48.6705 758.614 48.6023C759.28 48.5265 759.765 48.4015 760.068 48.2273C760.379 48.053 760.534 47.75 760.534 47.3182V47.2273C760.534 46.1061 760.227 45.2348 759.614 44.6136C759.008 43.9924 758.087 43.6818 756.852 43.6818C755.572 43.6818 754.568 43.9621 753.841 44.5227C753.114 45.0833 752.602 45.6818 752.307 46.3182L749.761 45.4091C750.216 44.3485 750.822 43.5227 751.58 42.9318C752.345 42.3333 753.178 41.9167 754.08 41.6818C754.989 41.4394 755.883 41.3182 756.761 41.3182C757.322 41.3182 757.966 41.3864 758.693 41.5227C759.428 41.6515 760.136 41.9205 760.818 42.3295C761.508 42.7386 762.08 43.3561 762.534 44.1818C762.989 45.0076 763.216 46.1136 763.216 47.5V59H760.534V56.6364H760.398C760.216 57.0152 759.913 57.4205 759.489 57.8523C759.064 58.2841 758.5 58.6515 757.795 58.9545C757.091 59.2576 756.231 59.4091 755.216 59.4091ZM755.625 57C756.686 57 757.58 56.7917 758.307 56.375C759.042 55.9583 759.595 55.4205 759.966 54.7614C760.345 54.1023 760.534 53.4091 760.534 52.6818V50.2273C760.42 50.3636 760.17 50.4886 759.784 50.6023C759.405 50.7083 758.966 50.803 758.466 50.8864C757.973 50.9621 757.492 51.0303 757.023 51.0909C756.561 51.1439 756.186 51.1894 755.898 51.2273C755.201 51.3182 754.549 51.4659 753.943 51.6705C753.345 51.8674 752.86 52.1667 752.489 52.5682C752.125 52.9621 751.943 53.5 751.943 54.1818C751.943 55.1136 752.288 55.8182 752.977 56.2955C753.674 56.7652 754.557 57 755.625 57ZM768.111 59V41.5455H770.702V44.1818H770.884C771.202 43.3182 771.777 42.6174 772.611 42.0795C773.444 41.5417 774.384 41.2727 775.429 41.2727C775.626 41.2727 775.872 41.2765 776.168 41.2841C776.463 41.2917 776.687 41.303 776.838 41.3182V44.0455C776.747 44.0227 776.539 43.9886 776.213 43.9432C775.895 43.8902 775.558 43.8636 775.202 43.8636C774.353 43.8636 773.596 44.0417 772.929 44.3977C772.27 44.7462 771.747 45.2311 771.361 45.8523C770.982 46.4659 770.793 47.1667 770.793 47.9545V59H768.111Z" fill="black"/>
<path d="M681.936 130.545C681.8 129.394 681.247 128.5 680.277 127.864C679.307 127.227 678.118 126.909 676.709 126.909C675.679 126.909 674.777 127.076 674.004 127.409C673.239 127.742 672.641 128.201 672.209 128.784C671.785 129.367 671.572 130.03 671.572 130.773C671.572 131.394 671.72 131.928 672.016 132.375C672.319 132.814 672.705 133.182 673.175 133.477C673.644 133.765 674.137 134.004 674.652 134.193C675.167 134.375 675.641 134.523 676.072 134.636L678.436 135.273C679.042 135.432 679.716 135.652 680.459 135.932C681.209 136.212 681.925 136.595 682.607 137.08C683.296 137.557 683.864 138.17 684.311 138.92C684.758 139.67 684.982 140.591 684.982 141.682C684.982 142.939 684.652 144.076 683.993 145.091C683.341 146.106 682.387 146.913 681.129 147.511C679.879 148.11 678.36 148.409 676.572 148.409C674.906 148.409 673.463 148.14 672.243 147.602C671.031 147.064 670.076 146.314 669.379 145.352C668.69 144.39 668.3 143.273 668.209 142H671.118C671.194 142.879 671.489 143.606 672.004 144.182C672.527 144.75 673.186 145.174 673.982 145.455C674.785 145.727 675.648 145.864 676.572 145.864C677.648 145.864 678.614 145.689 679.47 145.341C680.326 144.985 681.004 144.492 681.504 143.864C682.004 143.227 682.254 142.485 682.254 141.636C682.254 140.864 682.038 140.235 681.607 139.75C681.175 139.265 680.607 138.871 679.902 138.568C679.197 138.265 678.436 138 677.618 137.773L674.754 136.955C672.936 136.432 671.497 135.686 670.436 134.716C669.375 133.746 668.845 132.477 668.845 130.909C668.845 129.606 669.197 128.47 669.902 127.5C670.614 126.523 671.569 125.765 672.766 125.227C673.97 124.682 675.315 124.409 676.8 124.409C678.3 124.409 679.633 124.678 680.8 125.216C681.966 125.746 682.891 126.473 683.572 127.398C684.262 128.322 684.625 129.371 684.663 130.545H681.936ZM696.57 148.364C694.888 148.364 693.437 147.992 692.217 147.25C691.005 146.5 690.07 145.455 689.411 144.114C688.759 142.765 688.433 141.197 688.433 139.409C688.433 137.621 688.759 136.045 689.411 134.682C690.07 133.311 690.986 132.242 692.161 131.477C693.342 130.705 694.721 130.318 696.297 130.318C697.206 130.318 698.104 130.47 698.99 130.773C699.876 131.076 700.683 131.568 701.411 132.25C702.138 132.924 702.717 133.818 703.149 134.932C703.581 136.045 703.797 137.417 703.797 139.045V140.182H690.342V137.864H701.07C701.07 136.879 700.873 136 700.479 135.227C700.092 134.455 699.539 133.845 698.82 133.398C698.107 132.951 697.267 132.727 696.297 132.727C695.229 132.727 694.304 132.992 693.524 133.523C692.751 134.045 692.157 134.727 691.74 135.568C691.323 136.409 691.115 137.311 691.115 138.273V139.818C691.115 141.136 691.342 142.254 691.797 143.17C692.259 144.08 692.899 144.773 693.717 145.25C694.536 145.72 695.486 145.955 696.57 145.955C697.274 145.955 697.911 145.856 698.479 145.659C699.054 145.455 699.551 145.152 699.967 144.75C700.384 144.341 700.706 143.833 700.933 143.227L703.524 143.955C703.251 144.833 702.793 145.606 702.149 146.273C701.505 146.932 700.71 147.447 699.763 147.818C698.816 148.182 697.751 148.364 696.57 148.364ZM713.013 148.409C711.907 148.409 710.903 148.201 710.001 147.784C709.1 147.36 708.384 146.75 707.854 145.955C707.323 145.152 707.058 144.182 707.058 143.045C707.058 142.045 707.255 141.235 707.649 140.614C708.043 139.985 708.57 139.492 709.229 139.136C709.888 138.78 710.615 138.515 711.411 138.341C712.214 138.159 713.02 138.015 713.831 137.909C714.892 137.773 715.751 137.67 716.411 137.602C717.077 137.527 717.562 137.402 717.865 137.227C718.176 137.053 718.331 136.75 718.331 136.318V136.227C718.331 135.106 718.024 134.235 717.411 133.614C716.804 132.992 715.884 132.682 714.649 132.682C713.369 132.682 712.365 132.962 711.638 133.523C710.911 134.083 710.399 134.682 710.104 135.318L707.558 134.409C708.013 133.348 708.619 132.523 709.376 131.932C710.142 131.333 710.975 130.917 711.876 130.682C712.786 130.439 713.679 130.318 714.558 130.318C715.119 130.318 715.763 130.386 716.49 130.523C717.225 130.652 717.933 130.92 718.615 131.33C719.304 131.739 719.876 132.356 720.331 133.182C720.786 134.008 721.013 135.114 721.013 136.5V148H718.331V145.636H718.195C718.013 146.015 717.71 146.42 717.286 146.852C716.861 147.284 716.297 147.652 715.592 147.955C714.888 148.258 714.028 148.409 713.013 148.409ZM713.422 146C714.482 146 715.376 145.792 716.104 145.375C716.839 144.958 717.392 144.42 717.763 143.761C718.142 143.102 718.331 142.409 718.331 141.682V139.227C718.217 139.364 717.967 139.489 717.581 139.602C717.202 139.708 716.763 139.803 716.263 139.886C715.77 139.962 715.289 140.03 714.82 140.091C714.357 140.144 713.982 140.189 713.695 140.227C712.998 140.318 712.346 140.466 711.74 140.67C711.142 140.867 710.657 141.167 710.286 141.568C709.922 141.962 709.74 142.5 709.74 143.182C709.74 144.114 710.085 144.818 710.774 145.295C711.471 145.765 712.354 146 713.422 146ZM725.908 148V130.545H728.499V133.182H728.68C728.999 132.318 729.574 131.617 730.408 131.08C731.241 130.542 732.18 130.273 733.226 130.273C733.423 130.273 733.669 130.277 733.964 130.284C734.26 130.292 734.483 130.303 734.635 130.318V133.045C734.544 133.023 734.336 132.989 734.01 132.943C733.692 132.89 733.355 132.864 732.999 132.864C732.15 132.864 731.393 133.042 730.726 133.398C730.067 133.746 729.544 134.231 729.158 134.852C728.779 135.466 728.589 136.167 728.589 136.955V148H725.908ZM744.374 148.364C742.737 148.364 741.328 147.977 740.146 147.205C738.964 146.432 738.055 145.367 737.419 144.011C736.783 142.655 736.464 141.106 736.464 139.364C736.464 137.591 736.79 136.027 737.442 134.67C738.101 133.307 739.018 132.242 740.192 131.477C741.374 130.705 742.752 130.318 744.328 130.318C745.555 130.318 746.661 130.545 747.646 131C748.631 131.455 749.438 132.091 750.067 132.909C750.696 133.727 751.086 134.682 751.237 135.773H748.555C748.351 134.977 747.896 134.273 747.192 133.659C746.495 133.038 745.555 132.727 744.374 132.727C743.328 132.727 742.411 133 741.624 133.545C740.843 134.083 740.233 134.845 739.794 135.83C739.362 136.807 739.146 137.955 739.146 139.273C739.146 140.621 739.358 141.795 739.783 142.795C740.214 143.795 740.821 144.572 741.601 145.125C742.389 145.678 743.313 145.955 744.374 145.955C745.071 145.955 745.703 145.833 746.271 145.591C746.839 145.348 747.321 145 747.714 144.545C748.108 144.091 748.389 143.545 748.555 142.909H751.237C751.086 143.939 750.711 144.867 750.112 145.693C749.521 146.511 748.737 147.163 747.76 147.648C746.79 148.125 745.661 148.364 744.374 148.364ZM757.839 137.5V148H755.158V124.727H757.839V133.273H758.067C758.476 132.371 759.089 131.655 759.908 131.125C760.733 130.587 761.832 130.318 763.203 130.318C764.393 130.318 765.434 130.557 766.328 131.034C767.222 131.504 767.915 132.227 768.408 133.205C768.908 134.174 769.158 135.409 769.158 136.909V148H766.476V137.091C766.476 135.705 766.116 134.633 765.396 133.875C764.684 133.11 763.696 132.727 762.43 132.727C761.552 132.727 760.764 132.913 760.067 133.284C759.377 133.655 758.832 134.197 758.43 134.909C758.036 135.621 757.839 136.485 757.839 137.5Z" fill="black"/>
<rect y="7" width="310" height="554" rx="16" fill="#FFD966"/>
<path d="M72.8125 149.938L59.5625 144.016V141.734L72.8125 135.828V138.891L63.25 142.641L62.4219 142.906L63.25 143.188L72.8125 146.875V149.938ZM90.75 147.25C90.75 146.552 90.5885 145.964 90.2656 145.484C89.9531 145.005 89.5469 144.599 89.0469 144.266C88.5469 143.943 87.9948 143.672 87.3906 143.453C86.7969 143.234 86.224 143.036 85.6719 142.859C84.8698 142.599 84.0521 142.286 83.2188 141.922C82.3958 141.547 81.6458 141.099 80.9688 140.578C80.2812 140.047 79.7188 139.422 79.2812 138.703C78.8542 137.974 78.6406 137.12 78.6406 136.141C78.6406 135.161 78.8542 134.286 79.2812 133.516C79.7188 132.745 80.2865 132.094 80.9844 131.562C81.6823 131.031 82.474 130.63 83.3594 130.359C84.2448 130.078 85.1354 129.938 86.0312 129.938C87.0208 129.938 87.974 130.104 88.8906 130.438C89.8073 130.76 90.6198 131.219 91.3281 131.812C92.0365 132.406 92.6042 133.125 93.0312 133.969C93.4583 134.812 93.6823 135.755 93.7031 136.797H90.7344C90.651 136.141 90.4896 135.547 90.25 135.016C90.0104 134.474 89.6927 134.01 89.2969 133.625C88.901 133.24 88.4271 132.943 87.875 132.734C87.3333 132.516 86.7188 132.406 86.0312 132.406C85.4792 132.406 84.9375 132.484 84.4062 132.641C83.8854 132.797 83.4219 133.031 83.0156 133.344C82.599 133.656 82.2656 134.042 82.0156 134.5C81.776 134.958 81.6562 135.49 81.6562 136.094C81.6667 136.75 81.8333 137.307 82.1562 137.766C82.4792 138.214 82.8906 138.594 83.3906 138.906C83.8802 139.219 84.4115 139.479 84.9844 139.688C85.5677 139.896 86.1146 140.078 86.625 140.234C87.4688 140.495 88.3125 140.812 89.1562 141.188C90 141.552 90.7708 142.021 91.4688 142.594C92.1562 143.125 92.7083 143.776 93.125 144.547C93.5521 145.318 93.7656 146.208 93.7656 147.219C93.7656 148.24 93.5365 149.13 93.0781 149.891C92.6302 150.651 92.0469 151.281 91.3281 151.781C90.6094 152.292 89.7969 152.677 88.8906 152.938C87.9844 153.188 87.0781 153.312 86.1719 153.312C85.0885 153.312 84.0208 153.13 82.9688 152.766C81.9271 152.401 81.0208 151.875 80.25 151.188C79.5625 150.594 79.0156 149.901 78.6094 149.109C78.2135 148.307 78 147.417 77.9688 146.438H80.9219C81.0156 147.146 81.2083 147.776 81.5 148.328C81.7917 148.87 82.1667 149.328 82.625 149.703C83.0833 150.089 83.6094 150.38 84.2031 150.578C84.8073 150.766 85.4635 150.859 86.1719 150.859C86.7344 150.859 87.2865 150.792 87.8281 150.656C88.3802 150.51 88.8698 150.286 89.2969 149.984C89.724 149.693 90.0729 149.323 90.3438 148.875C90.6146 148.417 90.75 147.875 90.75 147.25ZM105.531 153.312C104.344 153.312 103.25 153.109 102.25 152.703C101.26 152.297 100.411 151.729 99.7031 151C98.9948 150.271 98.4427 149.406 98.0469 148.406C97.651 147.406 97.4531 146.318 97.4531 145.141V144.484C97.4531 143.12 97.6719 141.901 98.1094 140.828C98.5469 139.745 99.1302 138.828 99.8594 138.078C100.578 137.339 101.396 136.771 102.312 136.375C103.24 135.979 104.188 135.781 105.156 135.781C106.375 135.781 107.438 135.995 108.344 136.422C109.26 136.839 110.021 137.417 110.625 138.156C111.229 138.906 111.677 139.786 111.969 140.797C112.271 141.807 112.422 142.901 112.422 144.078V145.375H100.344V145.484C100.417 146.307 100.578 147.031 100.828 147.656C101.089 148.281 101.443 148.833 101.891 149.312C102.349 149.823 102.901 150.224 103.547 150.516C104.193 150.807 104.906 150.953 105.688 150.953C106.719 150.953 107.635 150.745 108.438 150.328C109.24 149.911 109.906 149.359 110.438 148.672L112.203 150.047C111.641 150.901 110.797 151.661 109.672 152.328C108.557 152.984 107.177 153.312 105.531 153.312ZM105.156 138.156C104.573 138.156 104.021 138.266 103.5 138.484C102.979 138.693 102.51 139 102.094 139.406C101.677 139.823 101.323 140.333 101.031 140.938C100.75 141.531 100.552 142.219 100.438 143H109.531V142.859C109.531 142.339 109.432 141.781 109.234 141.188C109.036 140.583 108.76 140.062 108.406 139.625C108.052 139.188 107.604 138.833 107.062 138.562C106.531 138.292 105.896 138.156 105.156 138.156ZM128.391 153C128.276 152.781 128.182 152.51 128.109 152.188C128.047 151.854 128 151.51 127.969 151.156C127.677 151.448 127.349 151.724 126.984 151.984C126.63 152.245 126.24 152.474 125.812 152.672C125.375 152.87 124.911 153.026 124.422 153.141C123.932 153.255 123.411 153.312 122.859 153.312C121.964 153.312 121.151 153.182 120.422 152.922C119.703 152.661 119.094 152.307 118.594 151.859C118.083 151.422 117.688 150.901 117.406 150.297C117.135 149.682 117 149.021 117 148.312C117 147.385 117.182 146.573 117.547 145.875C117.922 145.177 118.448 144.594 119.125 144.125C119.802 143.667 120.615 143.323 121.562 143.094C122.521 142.865 123.589 142.75 124.766 142.75H127.922V141.422C127.922 140.911 127.828 140.453 127.641 140.047C127.453 139.641 127.188 139.292 126.844 139C126.5 138.719 126.078 138.5 125.578 138.344C125.089 138.188 124.536 138.109 123.922 138.109C123.349 138.109 122.833 138.182 122.375 138.328C121.927 138.474 121.547 138.667 121.234 138.906C120.922 139.146 120.677 139.432 120.5 139.766C120.333 140.089 120.25 140.427 120.25 140.781H117.344C117.354 140.167 117.51 139.562 117.812 138.969C118.125 138.375 118.573 137.839 119.156 137.359C119.729 136.891 120.427 136.51 121.25 136.219C122.083 135.927 123.026 135.781 124.078 135.781C125.036 135.781 125.927 135.901 126.75 136.141C127.573 136.37 128.286 136.719 128.891 137.188C129.484 137.667 129.953 138.26 130.297 138.969C130.641 139.677 130.812 140.505 130.812 141.453V149.312C130.812 149.875 130.865 150.474 130.969 151.109C131.073 151.734 131.219 152.281 131.406 152.75V153H128.391ZM123.281 150.797C123.844 150.797 124.37 150.724 124.859 150.578C125.349 150.432 125.797 150.24 126.203 150C126.599 149.76 126.943 149.49 127.234 149.188C127.526 148.875 127.755 148.552 127.922 148.219V144.797H125.234C124.234 144.797 123.359 144.885 122.609 145.062C121.87 145.229 121.281 145.49 120.844 145.844C120.531 146.094 120.292 146.391 120.125 146.734C119.969 147.078 119.891 147.469 119.891 147.906C119.891 148.323 119.958 148.708 120.094 149.062C120.24 149.417 120.453 149.719 120.734 149.969C121.016 150.229 121.37 150.432 121.797 150.578C122.224 150.724 122.719 150.797 123.281 150.797ZM147.578 135.781C148.109 135.781 148.661 135.818 149.234 135.891C149.818 135.964 150.255 136.062 150.547 136.188L150.156 139.016C149.594 138.891 149.057 138.802 148.547 138.75C148.047 138.688 147.521 138.656 146.969 138.656C146.26 138.656 145.62 138.745 145.047 138.922C144.474 139.089 143.974 139.339 143.547 139.672C143.161 139.964 142.823 140.323 142.531 140.75C142.25 141.167 142.016 141.635 141.828 142.156V153H138.922V136.094H141.672L141.797 138.359L141.812 138.781C142.5 137.854 143.323 137.125 144.281 136.594C145.25 136.052 146.349 135.781 147.578 135.781ZM162.922 150.969C163.443 150.969 163.948 150.885 164.438 150.719C164.938 150.552 165.38 150.318 165.766 150.016C166.151 149.724 166.458 149.38 166.688 148.984C166.927 148.578 167.052 148.141 167.062 147.672H169.797C169.786 148.422 169.589 149.141 169.203 149.828C168.828 150.505 168.323 151.099 167.688 151.609C167.052 152.13 166.323 152.547 165.5 152.859C164.677 153.161 163.818 153.312 162.922 153.312C161.641 153.312 160.521 153.083 159.562 152.625C158.604 152.167 157.807 151.547 157.172 150.766C156.526 149.995 156.042 149.104 155.719 148.094C155.396 147.073 155.234 146 155.234 144.875V144.219C155.234 143.104 155.396 142.036 155.719 141.016C156.042 139.995 156.526 139.094 157.172 138.312C157.807 137.542 158.604 136.927 159.562 136.469C160.521 136.01 161.641 135.781 162.922 135.781C163.922 135.781 164.839 135.943 165.672 136.266C166.516 136.578 167.245 137.005 167.859 137.547C168.464 138.099 168.938 138.75 169.281 139.5C169.625 140.25 169.797 141.052 169.797 141.906H167.062C167.052 141.396 166.938 140.917 166.719 140.469C166.51 140.01 166.224 139.609 165.859 139.266C165.495 138.922 165.057 138.651 164.547 138.453C164.047 138.255 163.505 138.156 162.922 138.156C162.026 138.156 161.271 138.339 160.656 138.703C160.052 139.057 159.562 139.521 159.188 140.094C158.812 140.677 158.542 141.328 158.375 142.047C158.219 142.766 158.141 143.49 158.141 144.219V144.875C158.141 145.615 158.219 146.349 158.375 147.078C158.542 147.797 158.812 148.443 159.188 149.016C159.552 149.599 160.036 150.073 160.641 150.438C161.255 150.792 162.016 150.969 162.922 150.969ZM177.828 138.609C178.057 138.266 178.312 137.953 178.594 137.672C178.875 137.38 179.172 137.125 179.484 136.906C179.984 136.542 180.531 136.266 181.125 136.078C181.729 135.891 182.37 135.792 183.047 135.781C183.932 135.781 184.734 135.911 185.453 136.172C186.182 136.422 186.802 136.818 187.312 137.359C187.823 137.901 188.214 138.589 188.484 139.422C188.766 140.245 188.906 141.224 188.906 142.359V153H186.016V142.328C186.016 141.661 185.938 141.078 185.781 140.578C185.625 140.068 185.396 139.646 185.094 139.312C184.771 138.948 184.365 138.677 183.875 138.5C183.385 138.312 182.823 138.224 182.188 138.234C181.667 138.234 181.172 138.307 180.703 138.453C180.234 138.599 179.802 138.807 179.406 139.078C179.094 139.286 178.802 139.531 178.531 139.812C178.271 140.083 178.036 140.385 177.828 140.719V153H174.938V129H177.828V138.609ZM217.188 154.953H214.594L224.094 130.25H226.672L217.188 154.953ZM232.656 149.922V146.922L242.766 143.109L243.703 142.844L242.766 142.547L232.656 138.797V135.812L246.453 141.719V144L232.656 149.922Z" fill="black"/>
<path d="M86.0312 340.938L72.7812 335.016V332.734L86.0312 326.828V329.891L76.4688 333.641L75.6406 333.906L76.4688 334.188L86.0312 337.875V340.938ZM95.3281 341.547H106.453V344H92.4375V321.25H95.3281V341.547ZM111.734 327.094H120.375V341.5H125.891V344H111.734V341.5H117.484V329.609H111.734V327.094ZM117.109 322.656C117.109 322.406 117.146 322.172 117.219 321.953C117.302 321.734 117.427 321.547 117.594 321.391C117.729 321.255 117.901 321.151 118.109 321.078C118.328 320.995 118.573 320.953 118.844 320.953C119.115 320.953 119.354 320.995 119.562 321.078C119.771 321.151 119.943 321.255 120.078 321.391C120.245 321.536 120.37 321.719 120.453 321.938C120.536 322.156 120.578 322.396 120.578 322.656C120.578 323.125 120.432 323.516 120.141 323.828C119.849 324.141 119.417 324.297 118.844 324.297C118.26 324.297 117.823 324.141 117.531 323.828C117.25 323.516 117.109 323.125 117.109 322.656ZM141.734 339.516C141.734 339.172 141.667 338.865 141.531 338.594C141.396 338.312 141.167 338.057 140.844 337.828C140.521 337.599 140.094 337.391 139.562 337.203C139.031 337.005 138.37 336.828 137.578 336.672C136.609 336.474 135.724 336.234 134.922 335.953C134.13 335.672 133.453 335.333 132.891 334.938C132.318 334.552 131.875 334.099 131.562 333.578C131.25 333.047 131.094 332.432 131.094 331.734C131.094 331.047 131.255 330.406 131.578 329.812C131.901 329.208 132.354 328.682 132.938 328.234C133.521 327.786 134.214 327.432 135.016 327.172C135.828 326.911 136.719 326.781 137.688 326.781C138.729 326.781 139.667 326.917 140.5 327.188C141.333 327.458 142.042 327.833 142.625 328.312C143.208 328.792 143.656 329.354 143.969 330C144.292 330.635 144.453 331.323 144.453 332.062H141.562C141.562 331.698 141.469 331.344 141.281 331C141.094 330.646 140.833 330.333 140.5 330.062C140.167 329.792 139.76 329.573 139.281 329.406C138.812 329.24 138.281 329.156 137.688 329.156C137.073 329.156 136.531 329.224 136.062 329.359C135.604 329.495 135.224 329.677 134.922 329.906C134.609 330.135 134.375 330.401 134.219 330.703C134.062 331.005 133.984 331.318 133.984 331.641C133.984 331.974 134.047 332.271 134.172 332.531C134.297 332.792 134.516 333.026 134.828 333.234C135.13 333.443 135.536 333.63 136.047 333.797C136.568 333.964 137.224 334.125 138.016 334.281C139.057 334.5 139.99 334.755 140.812 335.047C141.635 335.328 142.328 335.667 142.891 336.062C143.453 336.469 143.88 336.938 144.172 337.469C144.474 338 144.625 338.615 144.625 339.312C144.625 340.062 144.453 340.745 144.109 341.359C143.776 341.974 143.307 342.5 142.703 342.938C142.099 343.375 141.375 343.714 140.531 343.953C139.688 344.193 138.766 344.312 137.766 344.312C136.62 344.312 135.599 344.161 134.703 343.859C133.807 343.547 133.052 343.135 132.438 342.625C131.812 342.125 131.333 341.542 131 340.875C130.677 340.208 130.516 339.516 130.516 338.797H133.406C133.448 339.391 133.604 339.891 133.875 340.297C134.156 340.703 134.505 341.031 134.922 341.281C135.328 341.531 135.781 341.708 136.281 341.812C136.781 341.917 137.276 341.969 137.766 341.969C138.536 341.969 139.208 341.88 139.781 341.703C140.354 341.516 140.802 341.26 141.125 340.938C141.323 340.74 141.474 340.521 141.578 340.281C141.682 340.042 141.734 339.786 141.734 339.516ZM156.562 323V327.094H163V329.328H156.562V338.516C156.562 339.172 156.646 339.714 156.812 340.141C156.979 340.568 157.208 340.906 157.5 341.156C157.792 341.417 158.125 341.599 158.5 341.703C158.885 341.807 159.292 341.859 159.719 341.859C160.031 341.859 160.354 341.844 160.688 341.812C161.021 341.771 161.349 341.724 161.672 341.672C161.984 341.62 162.276 341.568 162.547 341.516C162.828 341.453 163.057 341.401 163.234 341.359L163.641 343.406C163.401 343.552 163.109 343.682 162.766 343.797C162.422 343.901 162.047 343.99 161.641 344.062C161.234 344.146 160.802 344.208 160.344 344.25C159.896 344.292 159.448 344.312 159 344.312C158.25 344.312 157.547 344.208 156.891 344C156.245 343.781 155.682 343.438 155.203 342.969C154.724 342.51 154.344 341.917 154.062 341.188C153.792 340.448 153.656 339.557 153.656 338.516V329.328H149.219V327.094H153.656V323H156.562ZM191.969 345.953H189.375L198.875 321.25H201.453L191.969 345.953ZM207.438 340.922V337.922L217.547 334.109L218.484 333.844L217.547 333.547L207.438 329.797V326.812L221.234 332.719V335L207.438 340.922Z" fill="black"/>
<path d="M72.8125 71.9375L59.5625 66.0156V63.7344L72.8125 57.8281V60.8906L63.25 64.6406L62.4219 64.9062L63.25 65.1875L72.8125 68.875V71.9375ZM93.0938 75H90.1562L81.3281 58L81.2812 75H78.3594V52.25H81.2969L90.125 69.2188L90.1719 52.25H93.0938V75ZM109.172 75C109.057 74.7812 108.964 74.5104 108.891 74.1875C108.828 73.8542 108.781 73.5104 108.75 73.1562C108.458 73.4479 108.13 73.724 107.766 73.9844C107.411 74.2448 107.021 74.474 106.594 74.6719C106.156 74.8698 105.693 75.026 105.203 75.1406C104.714 75.2552 104.193 75.3125 103.641 75.3125C102.745 75.3125 101.932 75.1823 101.203 74.9219C100.484 74.6615 99.875 74.3073 99.375 73.8594C98.8646 73.4219 98.4688 72.901 98.1875 72.2969C97.9167 71.6823 97.7812 71.0208 97.7812 70.3125C97.7812 69.3854 97.9635 68.5729 98.3281 67.875C98.7031 67.1771 99.2292 66.5938 99.9062 66.125C100.583 65.6667 101.396 65.3229 102.344 65.0938C103.302 64.8646 104.37 64.75 105.547 64.75H108.703V63.4219C108.703 62.9115 108.609 62.4531 108.422 62.0469C108.234 61.6406 107.969 61.2917 107.625 61C107.281 60.7188 106.859 60.5 106.359 60.3438C105.87 60.1875 105.318 60.1094 104.703 60.1094C104.13 60.1094 103.615 60.1823 103.156 60.3281C102.708 60.474 102.328 60.6667 102.016 60.9062C101.703 61.1458 101.458 61.4323 101.281 61.7656C101.115 62.0885 101.031 62.4271 101.031 62.7812H98.125C98.1354 62.1667 98.2917 61.5625 98.5938 60.9688C98.9062 60.375 99.3542 59.8385 99.9375 59.3594C100.51 58.8906 101.208 58.5104 102.031 58.2188C102.865 57.9271 103.807 57.7812 104.859 57.7812C105.818 57.7812 106.708 57.901 107.531 58.1406C108.354 58.3698 109.068 58.7188 109.672 59.1875C110.266 59.6667 110.734 60.2604 111.078 60.9688C111.422 61.6771 111.594 62.5052 111.594 63.4531V71.3125C111.594 71.875 111.646 72.474 111.75 73.1094C111.854 73.7344 112 74.2812 112.188 74.75V75H109.172ZM104.062 72.7969C104.625 72.7969 105.151 72.724 105.641 72.5781C106.13 72.4323 106.578 72.2396 106.984 72C107.38 71.7604 107.724 71.4896 108.016 71.1875C108.307 70.875 108.536 70.5521 108.703 70.2188V66.7969H106.016C105.016 66.7969 104.141 66.8854 103.391 67.0625C102.651 67.2292 102.062 67.4896 101.625 67.8438C101.312 68.0938 101.073 68.3906 100.906 68.7344C100.75 69.0781 100.672 69.4688 100.672 69.9062C100.672 70.3229 100.74 70.7083 100.875 71.0625C101.021 71.4167 101.234 71.7188 101.516 71.9688C101.797 72.2292 102.151 72.4323 102.578 72.5781C103.005 72.724 103.5 72.7969 104.062 72.7969ZM123.047 75L116.094 58.0938H119.062L123.906 70.8438L124.172 71.8906L124.453 70.8438L129.188 58.0938H132.141L125.25 75H123.047ZM150.828 66.7344C150.828 67.474 150.771 68.1875 150.656 68.875C150.552 69.5521 150.396 70.1875 150.188 70.7812C149.906 71.5625 149.536 72.2656 149.078 72.8906C148.63 73.5052 148.089 74.0156 147.453 74.4219C146.995 74.7031 146.49 74.9219 145.938 75.0781C145.396 75.2344 144.807 75.3125 144.172 75.3125C143.443 75.3125 142.776 75.224 142.172 75.0469C141.578 74.8698 141.042 74.6146 140.562 74.2812C140.333 74.1146 140.115 73.9323 139.906 73.7344C139.698 73.5365 139.5 73.3177 139.312 73.0781L139.172 75H136.516V51H139.406V59.9062C139.646 59.6042 139.911 59.3333 140.203 59.0938C140.495 58.8438 140.807 58.6302 141.141 58.4531C141.557 58.2344 142.016 58.0677 142.516 57.9531C143.016 57.8385 143.557 57.7812 144.141 57.7812C144.87 57.7812 145.542 57.8802 146.156 58.0781C146.771 58.276 147.328 58.5521 147.828 58.9062C148.276 59.2396 148.677 59.6458 149.031 60.125C149.385 60.5938 149.698 61.1198 149.969 61.7031C150.25 62.3594 150.464 63.0885 150.609 63.8906C150.755 64.6823 150.828 65.5208 150.828 66.4062V66.7344ZM147.938 66.4062C147.938 65.875 147.901 65.3594 147.828 64.8594C147.766 64.349 147.667 63.8698 147.531 63.4219C147.344 62.8698 147.099 62.3646 146.797 61.9062C146.495 61.4479 146.125 61.0885 145.688 60.8281C145.385 60.6406 145.047 60.4948 144.672 60.3906C144.297 60.2865 143.88 60.2344 143.422 60.2344C142.922 60.2344 142.464 60.3021 142.047 60.4375C141.63 60.5625 141.26 60.7396 140.938 60.9688C140.604 61.2083 140.307 61.4896 140.047 61.8125C139.797 62.125 139.583 62.4688 139.406 62.8438V70.2344C139.594 70.6094 139.812 70.9583 140.062 71.2812C140.323 71.5938 140.62 71.8698 140.953 72.1094C141.286 72.349 141.661 72.5365 142.078 72.6719C142.495 72.7969 142.953 72.8594 143.453 72.8594C143.932 72.8594 144.37 72.8021 144.766 72.6875C145.161 72.5625 145.516 72.3854 145.828 72.1562C146.245 71.8646 146.594 71.4948 146.875 71.0469C147.156 70.599 147.38 70.099 147.547 69.5469C147.682 69.1302 147.781 68.6823 147.844 68.2031C147.906 67.724 147.938 67.2344 147.938 66.7344V66.4062ZM166.828 75C166.714 74.7812 166.62 74.5104 166.547 74.1875C166.484 73.8542 166.438 73.5104 166.406 73.1562C166.115 73.4479 165.786 73.724 165.422 73.9844C165.068 74.2448 164.677 74.474 164.25 74.6719C163.812 74.8698 163.349 75.026 162.859 75.1406C162.37 75.2552 161.849 75.3125 161.297 75.3125C160.401 75.3125 159.589 75.1823 158.859 74.9219C158.141 74.6615 157.531 74.3073 157.031 73.8594C156.521 73.4219 156.125 72.901 155.844 72.2969C155.573 71.6823 155.438 71.0208 155.438 70.3125C155.438 69.3854 155.62 68.5729 155.984 67.875C156.359 67.1771 156.885 66.5938 157.562 66.125C158.24 65.6667 159.052 65.3229 160 65.0938C160.958 64.8646 162.026 64.75 163.203 64.75H166.359V63.4219C166.359 62.9115 166.266 62.4531 166.078 62.0469C165.891 61.6406 165.625 61.2917 165.281 61C164.938 60.7188 164.516 60.5 164.016 60.3438C163.526 60.1875 162.974 60.1094 162.359 60.1094C161.786 60.1094 161.271 60.1823 160.812 60.3281C160.365 60.474 159.984 60.6667 159.672 60.9062C159.359 61.1458 159.115 61.4323 158.938 61.7656C158.771 62.0885 158.688 62.4271 158.688 62.7812H155.781C155.792 62.1667 155.948 61.5625 156.25 60.9688C156.562 60.375 157.01 59.8385 157.594 59.3594C158.167 58.8906 158.865 58.5104 159.688 58.2188C160.521 57.9271 161.464 57.7812 162.516 57.7812C163.474 57.7812 164.365 57.901 165.188 58.1406C166.01 58.3698 166.724 58.7188 167.328 59.1875C167.922 59.6667 168.391 60.2604 168.734 60.9688C169.078 61.6771 169.25 62.5052 169.25 63.4531V71.3125C169.25 71.875 169.302 72.474 169.406 73.1094C169.51 73.7344 169.656 74.2812 169.844 74.75V75H166.828ZM161.719 72.7969C162.281 72.7969 162.807 72.724 163.297 72.5781C163.786 72.4323 164.234 72.2396 164.641 72C165.036 71.7604 165.38 71.4896 165.672 71.1875C165.964 70.875 166.193 70.5521 166.359 70.2188V66.7969H163.672C162.672 66.7969 161.797 66.8854 161.047 67.0625C160.307 67.2292 159.719 67.4896 159.281 67.8438C158.969 68.0938 158.729 68.3906 158.562 68.7344C158.406 69.0781 158.328 69.4688 158.328 69.9062C158.328 70.3229 158.396 70.7083 158.531 71.0625C158.677 71.4167 158.891 71.7188 159.172 71.9688C159.453 72.2292 159.807 72.4323 160.234 72.5781C160.661 72.724 161.156 72.7969 161.719 72.7969ZM186.016 57.7812C186.547 57.7812 187.099 57.8177 187.672 57.8906C188.255 57.9635 188.693 58.0625 188.984 58.1875L188.594 61.0156C188.031 60.8906 187.495 60.8021 186.984 60.75C186.484 60.6875 185.958 60.6562 185.406 60.6562C184.698 60.6562 184.057 60.7448 183.484 60.9219C182.911 61.0885 182.411 61.3385 181.984 61.6719C181.599 61.9635 181.26 62.3229 180.969 62.75C180.688 63.1667 180.453 63.6354 180.266 64.1562V75H177.359V58.0938H180.109L180.234 60.3594L180.25 60.7812C180.938 59.8542 181.76 59.125 182.719 58.5938C183.688 58.0521 184.786 57.7812 186.016 57.7812ZM217.188 76.9531H214.594L224.094 52.25H226.672L217.188 76.9531ZM232.656 71.9219V68.9219L242.766 65.1094L243.703 64.8438L242.766 64.5469L232.656 60.7969V57.8125L246.453 63.7188V66L232.656 71.9219Z" fill="black"/>
<path d="M380 245L336.5 270.115L336.5 219.885L380 245Z" fill="#DDDDDD"/>
</svg>
